<?xml version="1.0" encoding="utf-8"?>
<!-- Generator: Adobe Illustrator 21.0.0, SVG Export Plug-In . SVG Version: 6.00 Build 0)  -->
<svg version="1.1" id="сетки_3" xmlns="http://www.w3.org/2000/svg" xmlns:xlink="http://www.w3.org/1999/xlink" x="0px"
	 y="0px" viewBox="0 0 512 512" style="enable-background:new 0 0 512 512;" xml:space="preserve">
<style type="text/css">
	.st0{fill:#999999;}
</style>
<g>
	<polygon class="st0" points="274,176 270.7,168 81.3,168 78,176 	"/>
	<path class="st0" d="M283.3,152l0.8,2l0.8,2l3.3,8l0.8,2l0.8,2h-2l3.3,8h4.7c1.3,0,2.6-0.7,3.3-1.8c0.7-1.1,0.9-2.5,0.4-3.8l-1-2.5
		l-0.8-2l-0.8-2l-3.3-8l-0.8-2l-0.8-2l-10-24h76l-10,24l-0.8,2l-0.8,2l-3.3,8l-0.8,2l-0.8,2l-1,2.5c-0.5,1.2-0.4,2.6,0.4,3.8
		c0.8,1.1,2,1.8,3.3,1.8h4.7l3.3-8h-2l0.8-2l0.8-2l3.3-8l0.8-2l0.8-2l11-26.5c0.5-1.2,0.4-2.6-0.4-3.8c-0.8-1.1-2-1.8-3.3-1.8h-88
		c-1.3,0-2.6,0.7-3.3,1.8c-0.7,1.1-0.9,2.5-0.4,3.8L283.3,152z"/>
	<polygon class="st0" points="369.3,168 366,176 508,176 508,168 	"/>
	<path class="st0" d="M11.6,183.4l7.6-2.5L13.6,164h37.1l3.3-8H8c-1.3,0-2.5,0.6-3.2,1.7c-0.8,1-1,2.4-0.6,3.6L11.6,183.4z"/>
	<polygon class="st0" points="366,212 508,212 508,204 369.3,204 	"/>
	<path class="st0" d="M367.7,161.5c0.5-1.2,0.4-2.6-0.4-3.8c-0.8-1.1-2-1.8-3.3-1.8h-4.7l-3.3,8h2l-0.8,2l-0.8,2l-3.3,8l-0.8,2
		l-0.8,2l-3.3,8l-0.8,2l-0.8,2l-3.3,8l-0.8,2l-0.8,2l-1,2.5c-0.5,1.2-0.4,2.6,0.4,3.8c0.8,1.1,2,1.8,3.3,1.8h4.7l3.3-8h-2l0.8-2
		l0.8-2l3.3-8l0.8-2l0.8-2l3.3-8l0.8-2l0.8-2l3.3-8l0.8-2l0.8-2L367.7,161.5z"/>
	<path class="st0" d="M273.3,164l0.8,2l0.8,2l3.3,8l0.8,2l0.8,2l3.3,8l0.8,2l0.8,2l3.3,8l0.8,2l0.8,2h-2l3.3,8h4.7
		c1.3,0,2.6-0.7,3.3-1.8c0.7-1.1,0.9-2.5,0.4-3.8l-1-2.5l-0.8-2l-0.8-2l-3.3-8l-0.8-2l-0.8-2l-3.3-8l-0.8-2l-0.8-2l-3.3-8l-0.8-2
		l-0.8-2h2l-3.3-8H276c-1.3,0-2.6,0.7-3.3,1.8c-0.7,1.1-0.9,2.5-0.4,3.8L273.3,164z"/>
	<polygon class="st0" points="298,156 301.3,164 338.7,164 342,156 	"/>
	<polygon class="st0" points="81.3,204 78,212 274,212 270.7,204 	"/>
	<path class="st0" d="M11.6,147.4l7.6-2.5L13.6,128H70l-10,24l-0.8,2l-0.8,2l-3.3,8l-0.8,2l-0.8,2l-1,2.5c-0.5,1.2-0.4,2.6,0.4,3.8
		c0.8,1.1,2,1.8,3.3,1.8h4.7l3.3-8h-2l0.8-2l0.8-2l3.3-8l0.8-2l0.8-2l11-26.5c0.5-1.2,0.4-2.6-0.4-3.8c-0.8-1.1-2-1.8-3.3-1.8H8
		c-1.3,0-2.5,0.6-3.2,1.7c-0.8,1-1,2.4-0.6,3.6L11.6,147.4z"/>
	<path class="st0" d="M11.6,219.4l7.6-2.5L13.6,200h37.1l3.3-8H8c-1.3,0-2.5,0.6-3.2,1.7c-0.8,1-1,2.4-0.6,3.6L11.6,219.4z"/>
	<polygon class="st0" points="301.3,200 338.7,200 342,192 298,192 	"/>
	<path class="st0" d="M367.7,197.5c0.5-1.2,0.4-2.6-0.4-3.8c-0.8-1.1-2-1.8-3.3-1.8h-4.7l-3.3,8h2l-0.8,2l-0.8,2l-3.3,8l-0.8,2
		l-0.8,2l-3.3,8l-0.8,2l-0.8,2l-3.3,8l-0.8,2l-0.8,2l-1,2.5c-0.5,1.2-0.4,2.6,0.4,3.8c0.8,1.1,2,1.8,3.3,1.8h4.7l3.3-8h-2l0.8-2
		l0.8-2l3.3-8l0.8-2l0.8-2l3.3-8l0.8-2l0.8-2l3.3-8l0.8-2l0.8-2L367.7,197.5z"/>
	<path class="st0" d="M280.7,192H276c-1.3,0-2.6,0.7-3.3,1.8c-0.7,1.1-0.9,2.5-0.4,3.8l1,2.5l0.8,2l0.8,2l3.3,8l0.8,2l0.8,2l3.3,8
		l0.8,2l0.8,2l3.3,8l0.8,2l0.8,2h-2l3.3,8h4.7c1.3,0,2.6-0.7,3.3-1.8c0.7-1.1,0.9-2.5,0.4-3.8l-1-2.5l-0.8-2l-0.8-2l-3.3-8l-0.8-2
		l-0.8-2l-3.3-8l-0.8-2l-0.8-2l-3.3-8l-0.8-2l-0.8-2h2L280.7,192z"/>
	<polygon class="st0" points="366,248 508,248 508,240 369.3,240 	"/>
	<polygon class="st0" points="81.3,240 78,248 274,248 270.7,240 	"/>
	<path class="st0" d="M68.3,168l-3.3,8l-0.8,2l-0.8,2l-3.3,8l-0.8,2l-0.8,2l-3.3,8l-0.8,2l-0.8,2l-1,2.5c-0.5,1.2-0.4,2.6,0.4,3.8
		c0.8,1.1,2,1.8,3.3,1.8h4.7l3.3-8h-2l0.8-2l0.8-2l3.3-8l0.8-2l0.8-2l3.3-8l0.8-2l0.8-2l3.3-8l0.8-2l0.8-2l1-2.5
		c0.5-1.2,0.4-2.6-0.4-3.8c-0.8-1.1-2-1.8-3.3-1.8h-4.7l-3.3,8h2l-0.8,2L68.3,168z"/>
	<path class="st0" d="M11.6,255.4l7.6-2.5L13.6,236h37.1l3.3-8H8c-1.3,0-2.5,0.6-3.2,1.7c-0.8,1-1,2.4-0.6,3.6L11.6,255.4z"/>
	<path class="st0" d="M367.7,233.5c0.5-1.2,0.4-2.6-0.4-3.8c-0.8-1.1-2-1.8-3.3-1.8h-4.7l-3.3,8h2l-0.8,2l-0.8,2l-3.3,8l-0.8,2
		l-0.8,2l-3.3,8l-0.8,2l-0.8,2l-3.3,8l-0.8,2l-0.8,2l-1,2.5c-0.5,1.2-0.4,2.6,0.4,3.8c0.8,1.1,2,1.8,3.3,1.8h4.7l3.3-8h-2l0.8-2
		l0.8-2l3.3-8l0.8-2l0.8-2l3.3-8l0.8-2l0.8-2l3.3-8l0.8-2l0.8-2L367.7,233.5z"/>
	<polygon class="st0" points="366,284 508,284 508,276 369.3,276 	"/>
	<polygon class="st0" points="301.3,236 338.7,236 342,228 298,228 	"/>
	<polygon class="st0" points="270.7,276 81.3,276 78,284 274,284 	"/>
	<path class="st0" d="M52.3,242.5c-0.5,1.2-0.4,2.6,0.4,3.8c0.8,1.1,2,1.8,3.3,1.8h4.7l3.3-8h-2l0.8-2l0.8-2l3.3-8l0.8-2l0.8-2
		l3.3-8l0.8-2l0.8-2l3.3-8l0.8-2l0.8-2l1-2.5c0.5-1.2,0.4-2.6-0.4-3.8c-0.8-1.1-2-1.8-3.3-1.8h-4.7l-3.3,8h2l-0.8,2l-0.8,2l-3.3,8
		l-0.8,2l-0.8,2l-3.3,8l-0.8,2l-0.8,2l-3.3,8l-0.8,2l-0.8,2L52.3,242.5z"/>
	<path class="st0" d="M11.6,291.4l7.6-2.5L13.6,272h37.1l3.3-8H8c-1.3,0-2.5,0.6-3.2,1.7c-0.8,1-1,2.4-0.6,3.6L11.6,291.4z"/>
	<polygon class="st0" points="366,320 508,320 508,312 369.3,312 	"/>
	<polygon class="st0" points="338.7,272 342,264 298,264 301.3,272 	"/>
	<path class="st0" d="M367.7,269.5c0.5-1.2,0.4-2.6-0.4-3.8c-0.8-1.1-2-1.8-3.3-1.8h-4.7l-3.3,8h2l-0.8,2l-0.8,2l-3.3,8l-0.8,2
		l-0.8,2l-3.3,8l-0.8,2l-0.8,2l-3.3,8l-0.8,2l-0.8,2l-1,2.5c-0.5,1.2-0.4,2.6,0.4,3.8c0.8,1.1,2,1.8,3.3,1.8h4.7l3.3-8h-2l0.8-2
		l0.8-2l3.3-8l0.8-2l0.8-2l3.3-8l0.8-2l0.8-2l3.3-8l0.8-2l0.8-2L367.7,269.5z"/>
	<polygon class="st0" points="270.7,312 81.3,312 78,320 274,320 	"/>
	<path class="st0" d="M291.3,284h4.7c1.3,0,2.6-0.7,3.3-1.8c0.7-1.1,0.9-2.5,0.4-3.8l-1-2.5l-0.8-2l-0.8-2l-3.3-8l-0.8-2l-0.8-2
		l-3.3-8l-0.8-2l-0.8-2l-3.3-8l-0.8-2l-0.8-2h2l-3.3-8H276c-1.3,0-2.6,0.7-3.3,1.8c-0.7,1.1-0.9,2.5-0.4,3.8l1,2.5l0.8,2l0.8,2
		l3.3,8l0.8,2l0.8,2l3.3,8l0.8,2l0.8,2l3.3,8l0.8,2l0.8,2h-2L291.3,284z"/>
	<path class="st0" d="M52.3,278.5c-0.5,1.2-0.4,2.6,0.4,3.8c0.8,1.1,2,1.8,3.3,1.8h4.7l3.3-8h-2l0.8-2l0.8-2l3.3-8l0.8-2l0.8-2
		l3.3-8l0.8-2l0.8-2l3.3-8l0.8-2l0.8-2l1-2.5c0.5-1.2,0.4-2.6-0.4-3.8c-0.8-1.1-2-1.8-3.3-1.8h-4.7l-3.3,8h2l-0.8,2l-0.8,2l-3.3,8
		l-0.8,2l-0.8,2l-3.3,8l-0.8,2l-0.8,2l-3.3,8l-0.8,2l-0.8,2L52.3,278.5z"/>
	<path class="st0" d="M11.6,327.4l7.6-2.5L13.6,308h37.1l3.3-8H8c-1.3,0-2.5,0.6-3.2,1.7c-0.8,1-1,2.4-0.6,3.6L11.6,327.4z"/>
	<polygon class="st0" points="366,356 508,356 508,348 369.3,348 	"/>
	<polygon class="st0" points="338.7,308 342,300 298,300 301.3,308 	"/>
	<polygon class="st0" points="274,356 270.7,348 81.3,348 78,356 	"/>
	<path class="st0" d="M291.3,320h4.7c1.3,0,2.6-0.7,3.3-1.8c0.7-1.1,0.9-2.5,0.4-3.8l-1-2.5l-0.8-2l-0.8-2l-3.3-8l-0.8-2l-0.8-2
		l-3.3-8l-0.8-2l-0.8-2l-3.3-8l-0.8-2l-0.8-2h2l-3.3-8H276c-1.3,0-2.6,0.7-3.3,1.8c-0.7,1.1-0.9,2.5-0.4,3.8l1,2.5l0.8,2l0.8,2
		l3.3,8l0.8,2l0.8,2l3.3,8l0.8,2l0.8,2l3.3,8l0.8,2l0.8,2h-2L291.3,320z"/>
	<path class="st0" d="M52.3,314.5c-0.5,1.2-0.4,2.6,0.4,3.8c0.8,1.1,2,1.8,3.3,1.8h4.7l3.3-8h-2l0.8-2l0.8-2l3.3-8l0.8-2l0.8-2
		l3.3-8l0.8-2l0.8-2l3.3-8l0.8-2l0.8-2l1-2.5c0.5-1.2,0.4-2.6-0.4-3.8c-0.8-1.1-2-1.8-3.3-1.8h-4.7l-3.3,8h2l-0.8,2l-0.8,2l-3.3,8
		l-0.8,2l-0.8,2l-3.3,8l-0.8,2l-0.8,2l-3.3,8l-0.8,2l-0.8,2L52.3,314.5z"/>
	<path class="st0" d="M54,336H8c-1.3,0-2.5,0.6-3.2,1.7c-0.8,1-1,2.4-0.6,3.6l7.4,22.1l7.6-2.5L13.6,344h37.1L54,336z"/>
	<polygon class="st0" points="298,336 301.3,344 338.7,344 342,336 	"/>
	<path class="st0" d="M360,360l0.8-2l0.8-2l3.3-8l0.8-2l0.8-2l1-2.5c0.5-1.2,0.4-2.6-0.4-3.8c-0.8-1.1-2-1.8-3.3-1.8h-4.7l-3.3,8h2
		l-0.8,2l-0.8,2l-3.3,8l-0.8,2l-0.8,2l-11,26.5c-0.5,1.2-0.4,2.6,0.4,3.8c0.8,1.1,2,1.8,3.3,1.8h164v-8H350L360,360z"/>
	<path class="st0" d="M288.7,360l-0.8-2l-0.8-2l-3.3-8l-0.8-2l-0.8-2h2l-3.3-8H276c-1.3,0-2.6,0.7-3.3,1.8c-0.7,1.1-0.9,2.5-0.4,3.8
		l1,2.5l0.8,2l0.8,2l3.3,8l0.8,2l0.8,2l10,24H62l10-24l0.8-2l0.8-2l3.3-8l0.8-2l0.8-2l1-2.5c0.5-1.2,0.4-2.6-0.4-3.8
		c-0.8-1.1-2-1.8-3.3-1.8h-4.7l-3.3,8h2l-0.8,2l-0.8,2l-3.3,8l-0.8,2l-0.8,2l-11,26.5c-0.5,1.2-0.4,2.6,0.4,3.8
		c0.8,1.1,2,1.8,3.3,1.8h240c1.3,0,2.6-0.7,3.3-1.8c0.7-1.1,0.9-2.5,0.4-3.8L288.7,360z"/>
	<path class="st0" d="M351.7,344l3.3-8l0.8-2l0.8-2l3.3-8l0.8-2l0.8-2l3.3-8l0.8-2l0.8-2l1-2.5c0.5-1.2,0.4-2.6-0.4-3.8
		c-0.8-1.1-2-1.8-3.3-1.8h-4.7l-3.3,8h2l-0.8,2l-0.8,2l-3.3,8l-0.8,2l-0.8,2l-3.3,8l-0.8,2l-0.8,2l-3.3,8l-0.8,2l-0.8,2l-1,2.5
		c-0.5,1.2-0.4,2.6,0.4,3.8c0.8,1.1,2,1.8,3.3,1.8h4.7l3.3-8h-2l0.8-2L351.7,344z"/>
	<path class="st0" d="M298.7,348l-0.8-2l-0.8-2l-3.3-8l-0.8-2l-0.8-2l-3.3-8l-0.8-2l-0.8-2l-3.3-8l-0.8-2l-0.8-2h2l-3.3-8H276
		c-1.3,0-2.6,0.7-3.3,1.8c-0.7,1.1-0.9,2.5-0.4,3.8l1,2.5l0.8,2l0.8,2l3.3,8l0.8,2l0.8,2l3.3,8l0.8,2l0.8,2l3.3,8l0.8,2l0.8,2h-2
		l3.3,8h4.7c1.3,0,2.6-0.7,3.3-1.8c0.7-1.1,0.9-2.5,0.4-3.8L298.7,348z"/>
	<path class="st0" d="M63.7,344l3.3-8l0.8-2l0.8-2l3.3-8l0.8-2l0.8-2l3.3-8l0.8-2l0.8-2l1-2.5c0.5-1.2,0.4-2.6-0.4-3.8
		c-0.8-1.1-2-1.8-3.3-1.8h-4.7l-3.3,8h2l-0.8,2l-0.8,2l-3.3,8l-0.8,2l-0.8,2l-3.3,8l-0.8,2l-0.8,2l-3.3,8l-0.8,2l-0.8,2l-1,2.5
		c-0.5,1.2-0.4,2.6,0.4,3.8c0.8,1.1,2,1.8,3.3,1.8h4.7l3.3-8h-2l0.8-2L63.7,344z"/>
</g>
</svg>
