<?xml version="1.0" encoding="iso-8859-1"?>
<!-- Generator: Adobe Illustrator 19.0.0, SVG Export Plug-In . SVG Version: 6.00 Build 0)  -->
<svg version="1.1" id="Layer_1" xmlns="http://www.w3.org/2000/svg" xmlns:xlink="http://www.w3.org/1999/xlink" x="0px" y="0px"
	 viewBox="0 0 512 512" style="enable-background:new 0 0 512 512;" xml:space="preserve">
<g>
	<g>
		<rect x="106.602" y="442.474" width="15.192" height="16.909"/>
	</g>
</g>
<g>
	<g>
		<path d="M433.981,323.968c23.167-12.796,38.898-37.47,38.898-65.757c0-31.705-19.765-58.862-47.613-69.849
			c0.464-4.874,0.787-9.701,0.787-14.63c0-2.142-0.029-4.297-0.085-6.406l-15.188,0.405c0.053,1.974,0.08,3.994,0.08,6.001
			c0,2.717-0.049,5.51-0.147,8.319l-0.224,2.18c-4.126-0.705-8.359-1.093-12.684-1.093c-24.212,0-45.769,11.532-59.506,29.379
			c-6.496-36.719-37.021-65.231-74.701-68.643v-7.385h-15.194v7.385c-37.681,3.412-68.205,31.925-74.701,68.643
			c-13.737-17.847-35.295-29.379-59.506-29.379c-2.993,0-5.938,0.196-8.84,0.538c-0.077-1.733-0.144-3.288-0.144-3.648
			c-0.001-4.002,0.127-8.062,0.379-12.065l-15.163-0.954c-0.418,6.651-0.078,13.311,0.121,19.967
			c-29.841,9.932-51.427,38.102-51.427,71.236c0,28.286,15.731,52.961,38.898,65.757C32.729,339.134,0,381.959,0,432.288v79.633
			h128.334h100.058h55.216h100.058H512v-79.633C512,381.959,479.272,339.134,433.981,323.968z M397.804,318.092
			c-29.13,0-53.455-20.911-58.784-48.508c17.268-5.953,29.568-14.117,38.038-21.634c11.018,7.814,36.693,22.042,79.057,23.83
			C449.95,298.281,426.156,318.092,397.804,318.092z M423.725,336.735l-25.921,29.715l-25.921-29.715
			c8.266-2.244,16.954-3.45,25.921-3.45S415.459,334.49,423.725,336.735z M397.804,198.33c32.49,0,59,26.014,59.841,58.305
			c-36.857-1.409-59.736-13.122-69.98-19.887c3.738-4.781,5.421-8.131,5.614-8.53l-13.67-6.631
			c-0.106,0.218-10.051,20.033-41.503,32.172C340.395,222.814,366.285,198.33,397.804,198.33z M361.629,323.968
			c-5.927,1.985-11.637,4.447-17.089,7.333c-14.052-13.546-31.192-23.909-50.247-29.913c12.136-6.281,22.541-15.442,30.31-26.583
			C329.396,295.96,343.133,313.752,361.629,323.968z M256,295.519c-33.565,0-61.542-24.307-67.301-56.239
			c20.126-6.814,34.284-16.307,43.875-24.944c12.019,8.679,41.254,25.345,90.298,27.162
			C316.244,272.333,288.785,295.519,256,295.519z M286.925,315.036L256,350.488l-30.924-35.451
			c9.829-2.815,20.204-4.325,30.924-4.325S277.096,312.222,286.925,315.036z M256,158.705c37.46,0,67.969,30.27,68.387,67.634
			c-43.398-1.449-69.893-15.522-81.197-23.177c4.592-5.729,6.623-9.786,6.848-10.251l-13.65-6.671
			c-0.518,1.038-12.249,23.713-48.701,37.285C189.56,187.466,219.484,158.705,256,158.705z M217.708,301.388
			c-19.056,6.004-36.195,16.367-50.247,29.913c-5.452-2.887-11.162-5.349-17.089-7.333c18.496-10.217,32.232-28.008,37.026-49.162
			C195.167,285.947,205.573,295.107,217.708,301.388z M114.196,198.33c32.49,0,59,26.014,59.84,58.305
			c-36.857-1.409-59.735-13.122-69.98-19.887c3.738-4.781,5.421-8.131,5.614-8.531l-13.647-6.676
			c-0.451,0.897-10.493,20.259-41.525,32.221C56.784,222.816,82.676,198.33,114.196,198.33z M55.412,269.584
			c17.268-5.953,29.568-14.117,38.038-21.634c11.018,7.815,36.693,22.042,79.057,23.83c-6.165,26.501-29.96,46.312-58.311,46.312
			C85.066,318.092,60.741,297.181,55.412,269.584z M140.116,336.735l-25.921,29.715l-25.921-29.715
			c8.266-2.244,16.954-3.45,25.921-3.45C123.162,333.284,131.851,334.49,140.116,336.735z M128.334,496.727H62.441v-61.054H47.249
			v61.054H15.192v-64.439c0-39.882,23.708-74.328,57.768-89.997l33.638,38.562v47.297h15.192v-47.297l33.638-38.562
			c0.456,0.21,0.912,0.421,1.365,0.638c-17.787,21.943-28.461,49.875-28.461,80.257V496.727z M368.474,496.727h-38.026v-69.729
			h-15.192v69.729h-16.454h-85.602h-16.454v-69.729h-15.192v69.729h-38.026v-73.542c0-45.563,27.234-84.884,66.277-102.543
			l38.599,44.249v53.634h15.193v-53.634l38.599-44.249c39.044,17.659,66.278,56.98,66.278,102.543V496.727z M496.808,496.727
			h-32.056v-61.054h-15.192v61.054h-65.892v-73.542c0-30.382-10.674-58.313-28.461-80.257c0.453-0.216,0.908-0.428,1.365-0.638
			l33.638,38.562v47.297h15.192v-47.297l33.638-38.562c34.06,15.669,57.768,50.114,57.768,89.997V496.727z"/>
	</g>
</g>
<g>
	<g>
		<rect x="390.205" y="442.474" width="15.192" height="16.909"/>
	</g>
</g>
<g>
	<g>
		<rect x="248.404" y="434.663" width="15.193" height="19.046"/>
	</g>
</g>
<g>
	<g>
		<rect x="432.331" y="26.828" width="15.192" height="16.909"/>
	</g>
</g>
<g>
	<g>
		<rect x="474.859" y="105.176" width="15.193" height="16.909"/>
	</g>
</g>
<g>
	<g>
		<rect x="69.13" y="35.283" width="15.193" height="16.909"/>
	</g>
</g>
<g>
	<g>
		<rect x="12.828" y="117.365" width="15.193" height="16.909"/>
	</g>
</g>
<g>
	<g>
		<path d="M94.822,135.784c-1.127,5.095-2.07,10.321-2.802,15.533l15.046,2.112c0.677-4.821,1.548-9.654,2.59-14.363L94.822,135.784
			z"/>
	</g>
</g>
<g>
	<g>
		<path d="M104.141,105.584c-1.95,4.837-3.729,9.857-5.287,14.919l14.521,4.47c1.432-4.654,3.067-9.268,4.858-13.711
			L104.141,105.584z"/>
	</g>
</g>
<g>
	<g>
		<path d="M162.19,31.461c-4.303,3.07-8.507,6.381-12.494,9.84l9.956,11.477c3.626-3.146,7.45-6.157,11.364-8.95L162.19,31.461z"/>
	</g>
</g>
<g>
	<g>
		<path d="M138.191,52.287c-3.649,3.835-7.149,7.887-10.402,12.043l11.965,9.364c2.953-3.773,6.131-7.452,9.444-10.934
			L138.191,52.287z"/>
	</g>
</g>
<g>
	<g>
		<path d="M118.596,77.339c-2.807,4.415-5.459,9.061-7.883,13.808l13.531,6.909c2.208-4.325,4.622-8.553,7.174-12.567
			L118.596,77.339z"/>
	</g>
</g>
<g>
	<g>
		<path d="M189.666,15.519c-4.795,2.209-9.543,4.672-14.113,7.324l7.623,13.141c4.161-2.413,8.483-4.656,12.847-6.667
			L189.666,15.519z"/>
	</g>
</g>
<g>
	<g>
		<path d="M219.65,5c-5.121,1.268-10.248,2.799-15.243,4.551l5.03,14.336c4.543-1.594,9.207-2.987,13.864-4.139L219.65,5z"/>
	</g>
</g>
<g>
	<g>
		<path d="M414.185,104.802l-14.127,5.59c1.726,4.361,3.265,8.952,4.578,13.647l14.633-4.09
			C417.814,114.749,416.104,109.652,414.185,104.802z"/>
	</g>
</g>
<g>
	<g>
		<path d="M399.282,76.657l-12.79,8.201c2.596,4.05,5.025,8.267,7.217,12.533l13.513-6.944
			C404.81,85.752,402.138,81.113,399.282,76.657z"/>
	</g>
</g>
<g>
	<g>
		<path d="M295.427,4.135l-3.59,14.764c4.666,1.135,9.336,2.509,13.879,4.082l4.972-14.357
			C305.693,6.894,300.559,5.384,295.427,4.135z"/>
	</g>
</g>
<g>
	<g>
		<path d="M422.818,135.963l-14.948,2.716c0.847,4.657,1.522,9.513,2.007,14.433l15.12-1.492
			C424.469,146.292,423.737,141.024,422.818,135.963z"/>
	</g>
</g>
<g>
	<g>
		<path d="M325.992,14.017l-6.31,13.821c4.378,1.999,8.704,4.227,12.86,6.625l7.592-13.16
			C335.565,18.667,330.806,16.215,325.992,14.017z"/>
	</g>
</g>
<g>
	<g>
		<path d="M364.826,37.682c-3.396-2.866-6.958-5.631-10.588-8.219l-8.821,12.37c3.295,2.349,6.528,4.859,9.615,7.464
			c0.583,0.49,1.16,0.985,1.733,1.485l9.976-11.459C366.106,38.768,365.465,38.22,364.826,37.682z"/>
	</g>
</g>
<g>
	<g>
		<path d="M378.833,51.198l-11.018,10.46c3.305,3.482,6.485,7.167,9.452,10.954l11.958-9.372
			C385.963,59.077,382.467,55.026,378.833,51.198z"/>
	</g>
</g>
<g>
	<g>
		<rect x="248.404" y="45.971" width="15.193" height="15.086"/>
	</g>
</g>
<g>
	<g>
		<rect x="248.404" y="76.145" width="15.193" height="15.086"/>
	</g>
</g>
<g>
	<g>
		<rect x="248.404" y="106.317" width="15.193" height="15.086"/>
	</g>
</g>
<g>
	<g>
		<path d="M234.082,2.176l2.225,15.029c0.69-0.1,1.383-0.187,2.077-0.279c1.893-0.237,6.156-0.841,10.02-1.115v15.075h15.193V15.404
			c0.9,0.019,1.811,0.047,2.728,0.083l-0.001,0.015c4.14,0.196,5.948,0.407,10.081,0.948c0.077,0.012,0.128,0.02,0.167,0.027
			l2.405-15.003C259.435-1.055,244.266,0.27,234.082,2.176z"/>
	</g>
</g>
<g>
</g>
<g>
</g>
<g>
</g>
<g>
</g>
<g>
</g>
<g>
</g>
<g>
</g>
<g>
</g>
<g>
</g>
<g>
</g>
<g>
</g>
<g>
</g>
<g>
</g>
<g>
</g>
<g>
</g>
</svg>
