<svg xmlns="http://www.w3.org/2000/svg" width="19.063" height="23.719" viewBox="0 0 19.063 23.719">
  <metadata><?xpacket begin="﻿" id="W5M0MpCehiHzreSzNTczkc9d"?>
<x:xmpmeta xmlns:x="adobe:ns:meta/" x:xmptk="Adobe XMP Core 5.6-c138 79.159824, 2016/09/14-01:09:01        ">
   <rdf:RDF xmlns:rdf="http://www.w3.org/1999/02/22-rdf-syntax-ns#">
      <rdf:Description rdf:about=""/>
   </rdf:RDF>
</x:xmpmeta>
                                                                                                    
                                                                                                    
                                                                                                    
                                                                                                    
                                                                                                    
                                                                                                    
                                                                                                    
                                                                                                    
                                                                                                    
                                                                                                    
                                                                                                    
                                                                                                    
                                                                                                    
                                                                                                    
                                                                                                    
                                                                                                    
                                                                                                    
                                                                                                    
                                                                                                    
                                                                                                    
                           
<?xpacket end="w"?></metadata>
<defs>
    <style>
      .cls-1 {
        fill: #999;
        fill-rule: evenodd;
      }
    </style>
  </defs>
  <path id="В" class="cls-1" d="M88,868.511a6.505,6.505,0,0,0-3.538-1.886V866.5a5.129,5.129,0,0,0,2.409-1.989,5.573,5.573,0,0,0,.872-3.088,5.388,5.388,0,0,0-.632-2.643,4.576,4.576,0,0,0-1.913-1.83,7.672,7.672,0,0,0-2.537-.836,29.662,29.662,0,0,0-3.978-.2h-8.42v23.7H79.8a15.653,15.653,0,0,0,4.09-.447,8.42,8.42,0,0,0,2.953-1.5,6.347,6.347,0,0,0,1.809-2.213,6.817,6.817,0,0,0,.672-3.1A5.413,5.413,0,0,0,88,868.511Zm-6.611-4.528a1.923,1.923,0,0,1-.993.923,3.456,3.456,0,0,1-1.272.334q-0.617.033-2.153,0.032H76.218v-5.014h0.416q1.6,0,2.409.024a3.815,3.815,0,0,1,1.4.279,1.78,1.78,0,0,1,.921.875,2.67,2.67,0,0,1,.3,1.178A3.232,3.232,0,0,1,81.388,863.983Zm1.4,9.8a2.378,2.378,0,0,1-1.193,1.026,5.1,5.1,0,0,1-1.825.43q-0.9.032-3.233,0.031h-0.32v-5.937h1.1q1.6,0,2.553.024a4.677,4.677,0,0,1,1.5.231,2.722,2.722,0,0,1,1.345.938,2.894,2.894,0,0,1,.448,1.72A3.115,3.115,0,0,1,82.789,873.781Z" transform="translate(-70.25 -855.906)"/>
</svg>
