<?xml version="1.0" encoding="iso-8859-1"?>
<!-- Generator: Adobe Illustrator 19.0.0, SVG Export Plug-In . SVG Version: 6.00 Build 0)  -->
<svg version="1.1" id="Capa_1" xmlns="http://www.w3.org/2000/svg" xmlns:xlink="http://www.w3.org/1999/xlink" x="0px" y="0px"
	 viewBox="0 0 463 463" style="enable-background:new 0 0 463 463;" xml:space="preserve">
<g>
	<path d="M455.5,404H447V163h0.5c4.142,0,7.5-3.358,7.5-7.5s-3.358-7.5-7.5-7.5h-44.923l16.781-10.069
		c3.552-2.131,4.704-6.738,2.572-10.29c-2.131-3.551-6.737-4.704-10.29-2.572L373.423,148h-26.845l16.781-10.069
		c3.552-2.131,4.704-6.738,2.572-10.29c-2.131-3.551-6.737-4.704-10.29-2.572L317.423,148h-26.845l16.781-10.069
		c3.552-2.131,4.704-6.738,2.572-10.29c-2.131-3.551-6.738-4.704-10.29-2.572L261.423,148h-26.845l16.781-10.069
		c3.552-2.131,4.704-6.738,2.572-10.29c-2.131-3.551-6.738-4.704-10.29-2.572L205.423,148H175.5c-4.142,0-7.5,3.358-7.5,7.5
		s3.358,7.5,7.5,7.5h0.5v49h-33.348l-7.66-160.857C134.801,47.145,131.503,44,127.5,44h-48c-4.003,0-7.301,3.145-7.492,7.143
		L64.348,212H15.5c-4.142,0-7.5,3.358-7.5,7.5s3.358,7.5,7.5,7.5H16v177H7.5c-4.142,0-7.5,3.358-7.5,7.5s3.358,7.5,7.5,7.5h448
		c4.142,0,7.5-3.358,7.5-7.5S459.642,404,455.5,404z M351,372v-33h33v33H351z M303,372v-33h33v33H303z M384,195v33h-33v-33H384z
		 M432,195v33h-33v-33H432z M384,276h-33v-33h33V276z M399,243h33v33h-33V243z M336,276h-33v-33h33V276z M303,291h33v33h-33V291z
		 M351,291h33v33h-33V291z M399,291h33v33h-33V291z M336,228h-33v-33h33V228z M399,339h33v33h-33V339z M432,163v17H295.5
		c-4.142,0-7.5,3.358-7.5,7.5v192c0,4.142,3.358,7.5,7.5,7.5H432v17H191V163H432z M85.128,91h36.745l0.81,17H84.318L85.128,91z
		 M120.349,59l0.81,17H85.842l0.81-17H120.349z M83.604,123h39.792l4.238,89H79.366L83.604,123z M31,227h145v177h-25v-81h0.5
		c4.142,0,7.5-3.358,7.5-7.5s-3.358-7.5-7.5-7.5h-96c-4.142,0-7.5,3.358-7.5,7.5s3.358,7.5,7.5,7.5H56v81H31V227z M136,323v17H71
		v-17H136z M71,355h65v17H71V355z M71,387h65v17H71V387z"/>
	<path d="M55.5,291h32c4.142,0,7.5-3.358,7.5-7.5s-3.358-7.5-7.5-7.5h-32c-4.142,0-7.5,3.358-7.5,7.5S51.358,291,55.5,291z"/>
	<path d="M119.5,291h32c4.142,0,7.5-3.358,7.5-7.5s-3.358-7.5-7.5-7.5h-32c-4.142,0-7.5,3.358-7.5,7.5S115.358,291,119.5,291z"/>
	<path d="M55.5,259h32c4.142,0,7.5-3.358,7.5-7.5s-3.358-7.5-7.5-7.5h-32c-4.142,0-7.5,3.358-7.5,7.5S51.358,259,55.5,259z"/>
	<path d="M119.5,259h32c4.142,0,7.5-3.358,7.5-7.5s-3.358-7.5-7.5-7.5h-32c-4.142,0-7.5,3.358-7.5,7.5S115.358,259,119.5,259z"/>
</g>
<g>
</g>
<g>
</g>
<g>
</g>
<g>
</g>
<g>
</g>
<g>
</g>
<g>
</g>
<g>
</g>
<g>
</g>
<g>
</g>
<g>
</g>
<g>
</g>
<g>
</g>
<g>
</g>
<g>
</g>
</svg>
