<?xml version="1.0" encoding="utf-8"?>
<!-- Generator: Adobe Illustrator 21.0.0, SVG Export Plug-In . SVG Version: 6.00 Build 0)  -->
<svg version="1.1" xmlns="http://www.w3.org/2000/svg" xmlns:xlink="http://www.w3.org/1999/xlink" x="0px" y="0px"
	 viewBox="0 0 512 512" style="enable-background:new 0 0 512 512;" xml:space="preserve">
<g id="Layer_1">
</g>
<g id="Слой_2">
	<path d="M508.7,260.9c-9-38-49.1-64.3-102.5-67.7c-2.9-44.4-21-85.7-51.5-116.8C322.9,44,281.1,26.1,237,26.1c0,0,0,0,0,0
		c-38.7,0-76.6,14.2-106.6,39.9C101.5,90.7,81,125,72.2,162.8c0,0-0.1,0-0.1,0c-17.9,7.1-33.8,19-45.9,34.4
		c-12.5,15.8-20.6,35-23.5,55.3c-0.8,5.6-1.2,11.2-1.2,16.7c0,29.2,10.8,56.7,30.3,77.5c0.6,0.7,1.4,1.2,2.2,1.6
		c5.3,34.5,24.1,66.2,53.1,89.3c29.3,23.5,67,36.4,106,36.4c30.4,0,59.9-7.7,85.5-22.4c24.6-14.1,44.6-34,57.8-57.6
		c3.8,0.2,7.7,0.4,11.7,0.4c7.6,0,15.2-0.5,22.7-1.3c7.9-0.9,15.7-2.3,23.3-4.1c32.4-7.7,61.9-23.1,83.2-43.4
		c21.5-20.5,33.3-44.7,33.3-68.2v-0.2C510.6,271.6,509.9,266.1,508.7,260.9z M40.7,281c-0.4-3.2-0.7-6.5-0.7-9.8
		c0-3.5,0.3-7.1,0.8-10.8c1.6-11.2,5.5-21.6,11.7-30.9c4.1-6.3,9.2-11.8,15-16.4c0.3,7.1,0.9,14.2,2,21.1c-0.2,0.2-0.4,0.3-0.5,0.5
		c-8.4,9.3-15.6,19.6-21.3,30.5C45,270.3,42.7,275.6,40.7,281z M281.7,321.1c-0.9-1.2-1.6-2.4-2.3-3.6c-1.2-2.3-2.1-4.8-2.6-7.3
		c-0.3-1.7-0.5-3.5-0.5-5.1c0-4.4,1.1-8.9,3.2-13.5c1.4-3.1,3.4-6.3,5.8-9.4c2.3,3.8,4.3,7.8,6,11.9c2.5,6.2,4.2,12.5,5.1,18.9
		C291.7,316.1,286.8,318.8,281.7,321.1z M237.9,345.3c0.2,0.4,0.4,0.8,0.7,1.1c0.2,0.4,0.5,0.8,0.7,1.2c0.4,0.6,0.8,1.3,1.1,1.8
		c0.3,0.5,0.7,1,1,1.5c0.6,1,1.3,2,2.1,3.1c0.3,0.4,0.6,0.9,1,1.3c0.3,0.5,0.7,1,1.2,1.5c0.3,0.4,0.6,0.8,0.9,1.1l0.2,0.2
		c0.4,0.5,0.9,1,1.3,1.5l0.3,0.3c0.2,0.2,0.4,0.5,0.7,0.7c0.6,0.6,1.1,1.2,1.7,1.9c0.3,0.3,0.7,0.7,1,1c0.3,0.3,0.5,0.5,0.8,0.7
		c0.4,0.5,0.8,0.8,1.2,1.2c0.5,0.5,1,0.9,1.4,1.3l0.8,0.7c0.7,0.6,1.3,1.1,2,1.7l0,0c-6.9,1-13.9,1.5-21,1.5
		c-12.3,0-24.5-1.5-36.5-4.6c-7.8-2-15.5-4.7-23-8c0.5-0.4,1.1-0.9,1.6-1.3c0.6-0.5,1.1-1,1.7-1.5c0.2-0.2,0.4-0.3,0.5-0.5
		c0.6-0.5,1.1-1,1.7-1.6c0.5-0.5,1-0.9,1.5-1.4c0,0,0.1,0,0.1-0.1l0.1-0.1c0.2-0.2,0.3-0.3,0.5-0.5c0.5-0.5,1.1-1,1.6-1.6
		c0.7-0.7,1.4-1.5,2.2-2.3c0,0,0.1-0.1,0.1-0.1l5.3-6.2c0.1-0.1,0.1-0.1,0.2-0.2c0.6-0.7,1.2-1.5,1.8-2.3c5.5,1.9,11.2,3.4,16.8,4.5
		c7.7,1.5,15.5,2.3,23.4,2.3C237,345.3,237.4,345.3,237.9,345.3z M196,303.3c-2.7,6.9-6.1,13.6-10.2,19.7
		c-3.9,5.8-8.4,11.3-13.5,16.2c-5,4.9-10.6,9.2-16.4,12.8c-14.6,9-31.1,13.7-47.7,13.7c-1.5,0-2.9,0-4.4-0.1c0-0.1-0.1-0.1-0.1-0.2
		c-0.7-1-1.3-2.1-1.8-2.9c-0.8-1.4-1.5-2.6-2-3.7c0-0.1-0.1-0.2-0.1-0.2c-0.2-0.3-0.3-0.6-0.4-0.8l-0.2-0.3
		c-0.2-0.3-0.3-0.6-0.5-0.9c0,0,0-0.1-0.1-0.1l-0.1-0.2c-0.2-0.4-0.4-0.8-0.5-1.1c2.8,0.3,5.6,0.4,8.3,0.4c5.4,0,10.8-0.6,16.1-1.7
		c4.6-1,9.1-2.4,13.5-4.2c0.2-0.1,0.4-0.2,0.7-0.2l1-0.4c7.5-3.2,14.4-7.6,20.6-12.9c6.3-5.3,11.7-11.5,16.3-18.4l0.8-1.2
		c0.2-0.3,0.4-0.7,0.6-1c0.4-0.7,0.8-1.4,1.1-2.1c2.3-4.2,4.4-8.1,6.2-12.8c2.3-6.2,4-12.7,4.9-19.3c0.6-4.3,0.9-8.6,0.9-12.8
		c0-7.6-0.9-15-2.8-22.2c-1.6-6.3-3.9-12.3-6.8-17.9c-0.3-0.6-0.6-1.2-0.9-1.7c-0.1-0.1-0.1-0.2-0.2-0.4c0-0.1-0.1-0.2-0.1-0.3
		c-0.2-0.4-0.5-0.8-0.7-1.2c-4.5-7.8-10.1-14.8-16.7-20.7c-5.9-5.3-12.5-9.6-19.5-12.9c-0.8-0.4-1.7-0.8-2.5-1.1
		c-0.6-0.3-1.2-0.5-1.8-0.7c-0.3-0.1-0.6-0.2-0.8-0.3c-3.3-1.2-6.6-2.3-10-3c0.2-1.1,0.4-2.2,0.6-3.3c0.4-2.4,1-4.9,1.6-7.4
		c0,0,0-0.1,0-0.1c0.2-1,0.5-2,0.9-3.4l0-0.1c7.1,1.5,13.9,3.9,20.4,7c7,3.4,13.6,7.8,19.6,12.9c0.5,0.5,1,0.9,1.6,1.4l0.4,0.3
		c0.2,0.2,0.4,0.3,0.5,0.5c0.1,0.1,0.3,0.3,0.4,0.4c0.1,0.1,0.1,0.1,0.2,0.2c5.4,5.1,10.1,10.7,14.2,16.9c3.8,5.7,6.9,11.9,9.5,18.4
		c0,0.1,0.1,0.1,0.1,0.2c0.2,0.4,0.3,0.9,0.5,1.4c0,0.1,0.1,0.3,0.1,0.4c0,0.1,0.1,0.2,0.1,0.4c0.1,0.2,0.2,0.5,0.2,0.7
		c0,0.1,0.1,0.2,0.1,0.3c1.8,5,3.2,10.3,4.1,15.7c0,0,0,0,0,0c1,5.7,1.5,11.7,1.5,17.7c0,4.8-0.3,9.8-1,14.6
		C200.6,288.7,198.7,296.2,196,303.3z M127.7,236.2c-0.1-0.3-0.2-0.7-0.2-1c0-0.1,0-0.1,0-0.2c-0.1-0.4-0.2-0.8-0.3-1.3
		c0-0.1,0-0.1,0-0.2c-0.1-0.5-0.2-0.9-0.3-1.4c0-0.1,0-0.1,0-0.2l-0.3-1.5c0-0.2,0-0.3-0.1-0.5c-0.1-0.7-0.2-1.4-0.4-2l-0.1-0.3
		c-0.1-0.8-0.2-1.6-0.3-2.3l-0.1-0.4c-0.2-1.6-0.4-3.2-0.6-4.7l-0.3-2.9c-0.1-0.8-0.1-1.6-0.2-2.5c0,0,0-0.1,0-0.1
		c-0.1-0.8-0.1-1.7-0.1-2.5c0-0.4-0.1-0.7-0.1-1.1c0-0.1,0-0.1,0-0.2c2.6-1.2,5.6-2.5,8.8-3.7c5.7,2.6,11.1,6.1,15.7,10.2
		c2.6,2.3,4.9,4.7,7,7.3c-4.5,1.3-9,2.8-13.3,4.5C137.4,231.1,132.5,233.5,127.7,236.2z M201.1,201.7c-1.3-2-2.7-4-4.2-6
		c17.5,0.4,34.5,3.6,50.6,9.4c16.7,6,31.9,14.7,45.1,25.8c8.3,6.9,15.6,14.7,21.9,23.1c5.3,7.2,9.9,14.8,13.6,22.7
		c-2.1,3.2-4.3,6.3-6.7,9.2c-0.9,1.1-1.8,2.2-2.9,3.4c-0.6,0.7-1.1,1.3-1.6,1.8c0,0.1-0.1,0.1-0.1,0.2c-0.4,0.5-0.8,0.9-1.2,1.3
		c-0.7,0.7-1.4,1.5-2.1,2.2c-0.7,0.7-1.4,1.4-2.1,2.1c0,0-0.1,0.1-0.1,0.1c-0.6,0.6-1.2,1.2-2,1.9l-0.2,0.1c0,0-0.1,0.1-0.1,0.1
		c-0.2,0.2-0.4,0.4-0.6,0.6c-1-3.7-2.3-7.4-3.7-11.1c-2.7-6.7-6.2-13-10.4-19c-0.1-0.2-0.3-0.4-0.4-0.6l-0.8-1.1
		c-6.5-9-14.6-17-23.9-23.9l-1.2-0.9c-16.3-11.7-35.8-19.3-56.5-22.2C208.6,214.2,205.2,207.8,201.1,201.7z M347.9,221.3
		c0,0.3-0.1,0.7-0.1,1l0,0.2c0,0,0,0.1,0,0.1c0,0.1,0,0.3-0.1,0.4c-0.1,0.7-0.2,1.4-0.3,2.1l-0.9,5.5c-7.7,2-15.1,4.5-22.2,7.3
		l-1.2-1.4c-0.4-0.4-0.7-0.9-1.1-1.3l-1.8-2.1c-0.1-0.1-0.1-0.1-0.2-0.2l-5.3-5.5c0,0-0.1-0.1-0.1-0.1c-0.4-0.4-0.8-0.8-1.2-1.3
		c4.4-2.2,9-4.2,13.6-6c6.9-2.7,14.1-5,21.4-6.9L347.9,221.3z M342.5,256.4c-1.2,3.1-2.6,6-4,8.9c-2.5-4.9-5.4-9.6-8.5-14.3
		c5.2-2.1,10.7-4,16.3-5.6C345.2,249.2,343.9,252.8,342.5,256.4z M348.6,198.3c-9.2,2.2-18.2,5-26.9,8.4c-8,3.1-15.7,6.8-23,10.8
		c-13.8-11-29.4-19.7-46.5-25.9c-18.8-6.8-38.8-10.3-59.3-10.3c-4.1,0-8.1,0.1-12,0.4c-0.4,0-0.9,0.1-1.3,0.2
		c-0.4-0.4-0.8-0.8-1.3-1.1c-6.9-6-14.5-11-22.7-15c-8-3.9-16.5-6.7-25.3-8.5c8.4-20.9,22-38.9,39.5-52.2
		c19.5-14.9,42.6-22.7,66.6-22.7c30,0,58.5,12.3,80.1,34.8c20.6,21.4,33,49.8,35.1,80.3C350.7,197.8,349.7,198.1,348.6,198.3z
		 M147.9,242.3c6.2-2.5,12.8-4.5,19.4-5.9c2,4.2,3.7,8.7,4.9,13.3c1.6,6,2.4,12.3,2.4,18.6c0,3.6-0.3,7.2-0.8,10.8
		c-0.8,5.6-2.2,11-4.2,16.3c-1.2,3.1-2.6,5.9-4.3,9c-7.9-6.7-15-14.4-21.1-23.1c-6.3-9-11.4-18.8-15.2-29.3
		C134.9,248.3,141.2,245,147.9,242.3z M119.3,339.9c-7.1,1.5-14.5,1.8-22.1,0.7c-2.6-0.4-5.3-0.9-8.1-1.7c-1-5-1.5-10.2-1.5-15.3
		c0-6.1,0.7-12.1,2.1-18c0.6-2.4,1.3-4.8,2.1-7.2c4,7,8.5,13.8,13.4,20.2c5.6,7.2,11.7,14,18.2,20.3
		C122,339.3,120.7,339.6,119.3,339.9z M160.6,365.8c11.6,6.2,23.8,11,36.3,14.2c13.1,3.3,26.5,5,40,5c12.1,0,24.2-1.4,35.9-4.1
		c-8.4,8.7-18.7,16-30.3,21.4c-15.3,7.2-32.7,11-50.3,11c-32,0-61.7-12.3-81.5-33.4C128.2,379.6,145.3,374.7,160.6,365.8z
		 M232.1,310.1c0,5.5,0.6,10.9,1.9,16.1c0.4,1.6,0.8,3.1,1.3,4.7c-6.6-0.1-13.1-0.7-19.5-2c-4.9-0.9-9.7-2.3-14.5-3.9
		c3.1-5.3,5.8-10.9,8-16.7c3.1-8.1,5.3-16.6,6.6-25.4c0.8-5.5,1.2-11.1,1.2-16.6c0-6.8-0.6-13.6-1.8-20.2c-0.6-3.6-1.5-7.1-2.4-10.6
		c15.5,2.6,30.1,8.3,42.8,16.5C240.3,270.4,232.1,290.3,232.1,310.1z M403.5,239.3c7.2,0.6,14.1,1.6,20.5,3.3
		c7.1,1.8,13.5,4.2,19,7.2c5.6,3,10.1,6.6,13.5,10.6c3.3,3.9,5.5,8.3,6.4,12.9c0.3,1.6,0.5,3.3,0.5,5.1c0,6-2,12.2-5.8,18.4
		c-3.9,6.4-9.7,12.5-17.1,18.3c-7.6,5.9-16.6,11.2-26.7,15.6c-10.5,4.6-21.9,8.1-34,10.5c-10.7,2.1-21.5,3.2-32,3.3h-1.4
		c-0.7,0-1.5,0-2.2,0c2.7-2.3,5.3-4.7,7.8-7.2c13.7-13.4,25.2-29,34.1-46.3C394.4,274.9,400.3,257.5,403.5,239.3z M85.5,168.7
		C101.7,93.2,164,40.4,237,40.4c0,0,0,0,0,0c83.6,0,151.7,69.6,155.1,158.3c0.1,2.4,0.1,4.7,0.1,6.8c0,8.9-0.7,17.9-2,26.7
		c-2.8,18.4-8.5,36-16.9,52.3c-8.2,16-18.7,30.3-31.3,42.6c-4.1,4-8.5,7.8-12.9,11.3c-0.6,0.5-1.2,0.9-1.8,1.4
		c-1.2-0.2-2.4-0.4-3.4-0.6c-2.5-0.4-5-1-7.4-1.6c-1.1-0.3-2.2-0.6-3.3-0.9c-0.1,0-0.1,0-0.2-0.1c-0.4-0.1-0.9-0.3-1.3-0.4
		c-0.1,0-0.2-0.1-0.3-0.1c-0.4-0.1-0.9-0.3-1.3-0.4l-6.1-2.3c-1.2-0.5-2.4-1.1-4-1.9c-0.4-0.2-0.8-0.4-1.2-0.6
		c-0.9-0.5-1.6-0.9-2.4-1.3c2.7-1.5,5.3-3.1,7.8-4.7c0.3-0.1,0.5-0.3,0.8-0.5l2.3-1.6c2.9-2,5.7-4.1,8.4-6.3
		c1.6-1.3,3.4-2.8,5.3-4.6c2.2-2,4.4-4.2,6.6-6.4l0.8-0.8c0.3-0.3,0.6-0.6,0.8-0.9c0.1-0.1,0.2-0.3,0.3-0.4c0.4-0.5,0.9-0.9,1.3-1.4
		c0.8-0.9,1.6-1.8,2.4-2.7c1.6-2,3-3.8,4.4-5.5c1.4-1.8,2.8-3.8,4.2-5.8c1.4-2,2.7-4.1,3.9-6.1l0.4-0.7c3.6-6,6.9-12.6,9.7-19.4
		c2.7-6.7,4.9-13.5,6.5-20.4c0.1-0.2,0.1-0.4,0.1-0.6l0.2-1c2.5-10.9,3.8-22,3.8-33c0-1.4,0-2.8-0.1-4.1l-0.1-2.9c0-0.2,0-0.4,0-0.6
		c-1.8-34.8-15.7-67.4-39.2-91.8c-24.3-25.2-56.4-39.1-90.4-39.1c-27.2,0-53.2,8.9-75.2,25.6c-21.1,16-37,38-46.2,63.7l-0.5,1.3
		c-3.7,10.8-6.2,22.1-7.3,33.5l-0.2,1.6c0,0.2,0,0.4,0,0.6c-0.3,3.2-0.4,6.5-0.5,9.9l0,1c0,0,0,0.1,0,0.1l0,0.3c0,0.3,0,0.5,0,0.9
		c0,15.8,2.5,31.2,7.3,45.9l0.7,2.1c0.1,0.2,0.2,0.5,0.3,0.7c4.3,12.2,10.2,23.7,17.5,34.1c6.4,9.2,13.9,17.5,22.3,24.7
		c-0.4,0.5-0.9,1-1.3,1.6c-0.4,0.4-0.7,0.8-1.1,1.2l-0.3,0.4c-0.1,0.1-0.2,0.2-0.3,0.3c-0.5,0.6-1.1,1.1-1.6,1.6
		c-0.6,0.6-1.2,1.2-1.7,1.7l-0.1,0.1c-0.6,0.5-1.2,1-1.7,1.5l-2,1.6l-0.6,0.4c-0.4,0.3-0.8,0.6-1.2,0.9l-3.9,2.7
		c-0.4,0.2-0.8,0.5-1.1,0.7l-2.6,1.5c-6.8-6.2-13.1-13.1-18.8-20.6c-6.5-8.5-12.3-17.8-17.1-27.5l-0.3-0.7
		c-7.3-14.9-12.4-30.9-15.1-47.3c-1.6-9.4-2.4-19.1-2.4-28.9v-0.8c0-0.7,0-1.3,0-2.1c0-1.5,0.1-2.9,0.1-4.3c0.2-4.3,0.5-8.7,1-13
		C83.4,179.9,84.3,174.3,85.5,168.7z M27.4,288.2c0.9,4.7,2.3,9.4,4,14.1l-0.7,4c0,0,0,0.1,0,0.1c-0.2,1.2-0.4,2.3-0.5,3.4
		c-0.1,0.7-0.2,1.4-0.2,2c-0.1,0.6-0.2,1.3-0.2,1.9c0,0,0,0.1,0,0.1l-0.4,5.8c-8.9-15.1-13.6-32.4-13.6-50.6c0-4.8,0.4-9.7,1.1-14.7
		c2.5-17.8,9.7-34.6,20.6-48.4c7.8-9.9,17.4-18.2,28.1-24.3c-0.1,0.9-0.2,1.7-0.3,2.6l0,0.2c0,0.1,0,0.1,0,0.2l-0.7,8.1
		c0,0.1,0,0.1,0,0.2c-0.1,1.5-0.2,3.1-0.2,4.7c-9.2,6.2-17.4,14.4-23.6,23.9c-7.3,11-12,23.4-13.9,36.8c-0.6,4.4-0.9,8.7-0.9,12.8
		C25.8,276.9,26.3,282.7,27.4,288.2z M271.4,439.2c-23.4,13.4-50.5,20.5-78.4,20.5c-35.8,0-70.3-11.8-97.1-33.2
		c-26.4-21.1-43.4-49.9-48-81.2c-0.3-1.9-0.5-4-0.8-6.5c-0.3-3.8-0.5-7.5-0.5-11.1c0-8.2,0.8-16.5,2.5-24.5l0.1-0.5
		c2.3-10.7,6-21.1,11.1-31c2.9-5.7,6.3-11.2,10.2-16.4c0.2,0.8,0.4,1.5,0.6,2.3c0.3,1,0.6,1.9,0.8,2.9c0.1,0.3,0.2,0.7,0.3,1
		c0.3,0.9,0.6,1.9,0.9,2.8l0.4,1.1c0,0,0,0.1,0,0.1l0.2,0.6c0.2,0.5,0.3,0.9,0.5,1.4c0.4,1.1,0.7,2.2,1.1,3.1c1.1,3.1,2.3,6.1,3.5,9
		c0,0.1,0,0.1,0.1,0.2l2.6,5.7c-2.4,5.4-4.3,11-5.7,16.7c-1.7,7-2.5,14.2-2.5,21.4c0,5.9,0.6,11.9,1.7,17.7c0,0.4,0.1,0.7,0.2,1.1
		l0.7,2.9c3,12.1,8.3,23.6,15.9,34l0.4,0.6c0.1,0.2,0.2,0.3,0.3,0.4c22.1,29.6,59.4,47.3,99.9,47.3c19.7,0,39.1-4.3,56.3-12.4
		c15-7.1,28.2-16.9,38.5-28.8c0.1,0,0.2,0.1,0.4,0.1l0.3,0.1c0.9,0.4,1.8,0.7,2.8,1.1c0.8,0.3,1.7,0.6,2.5,0.9
		c2.7,1,5.6,1.9,8.6,2.7c1,0.3,1.9,0.5,2.8,0.8c2.4,0.6,4.5,1.1,6.4,1.6c1,0.2,1.9,0.4,2.9,0.6c1,0.2,1.9,0.4,2.8,0.5l0.4,0.1
		c0.5,0.1,1.1,0.2,1.6,0.3C307.1,413,290.8,428.1,271.4,439.2z M496.3,277.2c0,41.4-45.4,83.4-105.5,97.7c-7.1,1.7-14.4,3-21.7,3.9
		c-7,0.8-14,1.2-21,1.2c-4.9,0-9.6-0.2-14-0.6c-8.4-0.7-16.6-2.1-24.2-4.1c-7.5-1.9-14.7-4.5-21.3-7.6c-1.7-0.8-3-1.5-4.2-2.1
		c-7.8-4.1-14.5-9-20.1-14.6c-5.5-5.5-9.8-11.7-12.8-18.4c-1.5-3.4-2.6-6.5-3.4-9.8c-1-4.2-1.5-8.5-1.5-12.9
		c0-15.6,6.4-31.7,18.6-46.7l7.8,7.6c0.4,0.5,0.9,1,1.5,1.7l0.2,0.3c-3.3,4.2-5.9,8.5-7.9,12.8c-3,6.5-4.5,13-4.5,19.5
		c0,2.6,0.3,5.3,0.8,7.9c0.7,3.9,2.1,7.6,4,11.2c1.2,2.2,2.6,4.4,4.2,6.5c0.3,0.5,0.6,0.9,1,1.3l1.6,1.7c3,3.3,6.5,6.4,10.6,9.1
		c3.9,2.6,8.3,5,13,7c7.8,3.3,16.5,5.8,26.1,7.3c0.4,0.1,0.8,0.2,1.2,0.2l4.2,0.5l0.6,0.1c0.2,0,0.4,0,0.6,0.1
		c5.3,0.6,10.8,0.9,16.5,1h1.4c11.4,0,23.1-1.2,34.8-3.6c13.1-2.6,25.5-6.4,36.9-11.4c11.2-4.9,21.3-10.8,29.8-17.4
		c8.8-6.8,15.7-14.3,20.5-22.1c5.3-8.5,7.9-17.3,7.9-25.9c0-2.8-0.3-5.4-0.8-8c-1.4-7-4.6-13.5-9.5-19.3c-4.5-5.4-10.5-10.1-17.6-14
		c-6.5-3.6-14.1-6.4-22.3-8.5c-5.9-1.5-12.2-2.6-18.7-3.3c0.1-0.7,0.2-1.5,0.2-2.2c0,0,0-0.1,0-0.1l0.3-4.5c0.1-0.9,0.1-1.8,0.2-2.7
		c0,0,0-0.1,0-0.1l0.2-8c44.7,4,77.7,25.7,85,56.4c1,4.2,1.5,8.5,1.5,12.9V277.2z"/>
</g>
</svg>
