<?xml version="1.0" encoding="utf-8"?>
<!-- Generator: Adobe Illustrator 21.0.0, SVG Export Plug-In . SVG Version: 6.00 Build 0)  -->
<svg version="1.1" id="Слой_1" xmlns="http://www.w3.org/2000/svg" xmlns:xlink="http://www.w3.org/1999/xlink" x="0px" y="0px"
	 viewBox="0 0 512 512" style="enable-background:new 0 0 512 512;" xml:space="preserve">
<style type="text/css">
	.st0{display:none;}
	.st1{display:inline;}
	.st2{fill:#999999;}
</style>
<g id="сетки" class="st0">
	<g class="st1">
		<path class="st2" d="M-940.8,250.2l54.2-52.5c1.6-1.6,3.7-2.3,5.7-2.3c2.1,0,4.1,0.8,5.7,2.3l54.2,52.5l12.1-11.7l-66.3-64.2
			c-1.6-1.6-3.7-2.3-5.7-2.3c-2.1,0-4.1,0.8-5.7,2.3l-66.3,64.2l-5.5,5.3l-21.5,21.8l5.8,5.6c1.6,1.6,3.7,2.3,5.7,2.3
			c2.1,0,4.1-0.8,5.7-2.3l9.7-9.4L-940.8,250.2z"/>
		<path class="st2" d="M-784,244.3l-3-2.9l-0.7-0.7c-0.8-0.8-1.8-1.4-2.8-1.8c-0.9-0.4-1.9-0.6-2.9-0.6c-2.1,0-4.1,0.8-5.7,2.3
			l-9.7,9.4l-12.1,11.7l-54.2,52.5c-1.6,1.6-3.7,2.3-5.7,2.3c-2.1,0-4.1-0.8-5.7-2.3l-54.2-52.5l-12.1,11.7l66.3,64.2
			c1.6,1.6,3.7,2.3,5.7,2.3c2.1,0,4.1-0.8,5.7-2.3l66.2-64.1l0,0l3-2.9l3-2.9l3.7-3.6l17.4-17.7L-784,244.3z"/>
		<path class="st2" d="M-747.2,250.2l54.2-52.5c1.6-1.6,3.7-2.3,5.7-2.3c2.1,0,4.1,0.8,5.7,2.3l54.2,52.5l12.1-11.7l-66.3-64.2
			c-1.6-1.6-3.7-2.3-5.7-2.3c-2.1,0-4.1,0.8-5.7,2.3l-66.3,64.2l-5.5,5.3l-21.5,21.8l5.8,5.6c1.6,1.6,3.7,2.3,5.7,2.3
			c2.1,0,4.1-0.8,5.7-2.3l9.7-9.4L-747.2,250.2z"/>
		<path class="st2" d="M-590.4,244.3l-3-2.9l-0.7-0.7c-0.8-0.8-1.8-1.4-2.8-1.8c-0.9-0.4-1.9-0.6-2.9-0.6c-2.1,0-4.1,0.8-5.7,2.3
			l-9.7,9.4l-12.1,11.7l-54.2,52.5c-1.6,1.6-3.7,2.3-5.7,2.3c-2.1,0-4.1-0.8-5.7-2.3l-54.2-52.5l-12.1,11.7l66.3,64.2
			c1.6,1.6,3.7,2.3,5.7,2.3c2.1,0,4.1-0.8,5.7-2.3l66.2-64.1l0,0l3-2.9l3-2.9l3.7-3.6l17.4-17.7L-590.4,244.3z"/>
		<polygon class="st2" points="-1002.5,238.5 -1023.9,217.7 -1036,229.4 -1014.6,250.2 		"/>
		<path class="st2" d="M-977.6,244.3l-3-2.9l-0.7-0.7c-0.8-0.8-1.8-1.4-2.8-1.8c-0.9-0.4-1.9-0.6-2.9-0.6c-2.1,0-4.1,0.8-5.7,2.3
			l-9.7,9.4l-12.1,11.7l-21.4,20.7l12.1,11.7l21.4-20.7l0,0l3-2.9l3-2.9l3.7-3.6l17.4-17.7L-977.6,244.3z"/>
		<polygon class="st2" points="-565.5,273.5 -544.1,294.3 -532,282.6 -553.4,261.8 		"/>
		<path class="st2" d="M-553.4,250.2l21.4-20.7l-12.1-11.7l-21.4,20.7l0,0l-3,2.9l-3,2.9l-3.7,3.6l-17.4,17.7l2.2,2.1l3,2.9l0.7,0.7
			c0.8,0.8,1.8,1.4,2.8,1.8c0.9,0.4,1.9,0.6,2.9,0.6c2.1,0,4.1-0.8,5.7-2.3l9.7-9.4L-553.4,250.2z"/>
	</g>
</g>
<g id="сетки2" class="st0">
	<g class="st1">
		<polygon class="st2" points="-721.1,250.3 -709.4,238.7 -749.4,198.8 -761,210.4 		"/>
		<polygon class="st2" points="-916.1,250.3 -904.5,238.7 -944.4,198.8 -956.1,210.4 		"/>
		<path class="st2" d="M-597.4,213.6c4.7,4.7,12.3,4.7,17,0l46.8-46.9l-11.6-11.7l-55.3,55.3L-597.4,213.6z"/>
		
			<rect x="-558.1" y="200.3" transform="matrix(0.7071 -0.7071 0.7071 0.7071 -313.0334 -325.8217)" class="st2" width="16.5" height="29.3"/>
		
			<rect x="-558.1" y="326.1" transform="matrix(0.7071 -0.7071 0.7071 0.7071 -401.987 -288.9765)" class="st2" width="16.5" height="29.3"/>
		
			<rect x="-1026.4" y="156.6" transform="matrix(0.7071 -0.7071 0.7071 0.7071 -419.2941 -669.8007)" class="st2" width="16.5" height="29.3"/>
		
			<rect x="-841" y="259.2" transform="matrix(0.7071 -0.7071 0.7071 0.7071 -447.1436 -504.6609)" class="st2" width="16.5" height="56.5"/>
		<path class="st2" d="M-775.5,298.4c-4.7-4.7-12.3-4.7-17,0l-86.2,86.2c-1.6,1.6-4.1,1.6-5.7,0l-60.1-60.1l-11.6,11.6l66,66.1
			c4.7,4.7,12.3,4.7,17,0l100.7-100.7L-775.5,298.4z"/>
		<path class="st2" d="M-987.5,213.6c4.7,4.7,12.3,4.7,17,0l86.2-86.2c1.6-1.6,4.1-1.6,5.7,0l60.1,60.1l11.6-11.6l-66.1-66.1
			c-4.7-4.7-12.3-4.7-17,0l-100.7,100.7L-987.5,213.6z"/>
		
			<rect x="-1026.4" y="282.4" transform="matrix(0.7071 -0.7071 0.7071 0.7071 -508.2476 -632.9554)" class="st2" width="16.5" height="29.3"/>
		<path class="st2" d="M-970.5,298.4c-4.7-4.7-12.3-4.7-17,0l-46.8,46.8l11.6,11.6l55.3-55.3L-970.5,298.4z"/>
		<polygon class="st2" points="-623.6,313.2 -611.9,301.6 -651.9,261.7 -663.5,273.3 		"/>
		<path class="st2" d="M-580.4,298.4c-4.7-4.7-12.3-4.7-17,0l-86.2,86.2c-1.6,1.6-4.1,1.6-5.7,0l-60.1-60.1l-11.6,11.6l66.1,66.1
			c4.7,4.7,12.3,4.7,17,0l100.7-100.7L-580.4,298.4z"/>
		<path class="st2" d="M-890,276.5c4.7,4.7,12.3,4.7,17,0l100.7-100.7l-3.2-3.2c-4.7-4.7-12.3-4.7-17,0l-100.7,100.7L-890,276.5z"/>
		<path class="st2" d="M-967.4,175.8l-3.2-3.2c-4.7-4.7-12.3-4.7-17,0l-46.8,46.9l11.6,11.6L-967.4,175.8z"/>
		<path class="st2" d="M-678,235.6c-4.7-4.7-12.3-4.7-17,0l-100.7,100.7l3.2,3.2c4.7,4.7,12.3,4.7,17,0l100.7-100.7L-678,235.6z"/>
		<path class="st2" d="M-873.1,235.5c-4.7-4.7-12.3-4.7-17,0l-100.7,100.7l3.2,3.2c4.7,4.7,12.3,4.7,17,0l100.7-100.7L-873.1,235.5z
			"/>
		<path class="st2" d="M-600.6,336.2l3.2,3.2c4.7,4.7,12.3,4.7,17,0l46.8-46.8l-11.6-11.7L-600.6,336.2z"/>
		<path class="st2" d="M-792.5,213.6c4.7,4.7,12.3,4.7,17,0l86.2-86.2c1.6-1.6,4.1-1.6,5.7,0l60.1,60.1l11.6-11.6l-66.1-66.1
			c-4.7-4.7-12.3-4.7-17,0l-100.7,100.7L-792.5,213.6z"/>
		<path class="st2" d="M-695,276.5c4.7,4.7,12.3,4.7,17,0l100.7-100.7l-3.2-3.2c-4.7-4.7-12.3-4.7-17,0l-100.7,100.7L-695,276.5z"/>
	</g>
</g>
<g id="ремни">
	<path class="st2" d="M417.2,322.8l-260.7,27.6c8.7-4.8,16.7-10.9,23.9-18.1c1.6-1.7,3.2-3.3,4.8-5.1l206.6-21.9
		C398.8,312.9,407.5,318.9,417.2,322.8z"/>
	<path class="st2" d="M417.2,189.2c-9.7,3.9-18.4,9.9-25.5,17.4l-206.6-21.9c-1.5-1.7-3.1-3.4-4.8-5.1c-7.2-7.2-15.2-13.3-23.9-18.1
		L417.2,189.2z"/>
	<g>
		<path class="st2" d="M172.8,183.4c-13.1-12.4-29.4-21.3-47.7-25.2c-6.8-1.5-13.9-2.2-21.1-2.2C48.8,156,4,200.8,4,256
			s44.8,100,100,100c7.2,0,14.3-0.8,21.1-2.2c18.2-3.9,34.6-12.8,47.7-25.2c19.2-18.2,31.2-44,31.2-72.6
			C204,227.4,192,201.6,172.8,183.4z M104,328c-39.8,0-72-32.2-72-72s32.2-72,72-72s72,32.2,72,72S143.8,328,104,328z"/>
	</g>
	<path class="st2" d="M104,192c-35.4,0-64,28.6-64,64c0,35.3,28.6,64,64,64s64-28.7,64-64C168,220.6,139.4,192,104,192z M104,276
		c-11.1,0-20-9-20-20s8.9-20,20-20s20,9,20,20S115.1,276,104,276z"/>
	<g>
		<path class="st2" d="M444,192c-16.1,0-30.7,5.9-42,15.7c-13.5,11.7-22,29-22,48.3s8.5,36.6,22,48.3c11.2,9.8,25.9,15.7,42,15.7
			c35.4,0,64-28.7,64-64C508,220.6,479.4,192,444,192z M444,304c-26.5,0-48-21.5-48-48s21.5-48,48-48s48,21.5,48,48
			S470.5,304,444,304z"/>
	</g>
	<path class="st2" d="M444,216c-22.1,0-40,17.9-40,40s17.9,40,40,40s40-17.9,40-40S466.1,216,444,216z M444,280
		c-13.3,0-24-10.8-24-24s10.8-24,24-24s24,10.8,24,24C468,269.2,457.3,280,444,280z"/>
</g>
</svg>
