<?xml version="1.0" encoding="utf-8"?>
<!-- Generator: Adobe Illustrator 21.0.0, SVG Export Plug-In . SVG Version: 6.00 Build 0)  -->
<svg version="1.1" id="Слой_1" xmlns="http://www.w3.org/2000/svg" xmlns:xlink="http://www.w3.org/1999/xlink" x="0px" y="0px"
	 viewBox="0 0 512 512" style="enable-background:new 0 0 512 512;" xml:space="preserve">
<style type="text/css">
	.st0{display:none;}
	.st1{display:inline;}
	.st2{fill:#999999;}
</style>
<g id="сетки" class="st0">
	<g class="st1">
		<path class="st2" d="M-420.8,250.2l54.2-52.5c1.6-1.6,3.7-2.3,5.7-2.3c2.1,0,4.1,0.8,5.7,2.3l54.2,52.5l12.1-11.7l-66.3-64.2
			c-1.6-1.6-3.7-2.3-5.7-2.3c-2.1,0-4.1,0.8-5.7,2.3l-66.3,64.2l-5.5,5.3l-21.5,21.8l5.8,5.6c1.6,1.6,3.7,2.3,5.7,2.3
			c2.1,0,4.1-0.8,5.7-2.3l9.7-9.4L-420.8,250.2z"/>
		<path class="st2" d="M-264,244.3l-3-2.9l-0.7-0.7c-0.8-0.8-1.8-1.4-2.8-1.8c-0.9-0.4-1.9-0.6-2.9-0.6c-2.1,0-4.1,0.8-5.7,2.3
			l-9.7,9.4l-12.1,11.7l-54.2,52.5c-1.6,1.6-3.7,2.3-5.7,2.3c-2.1,0-4.1-0.8-5.7-2.3l-54.2-52.5l-12.1,11.7l66.3,64.2
			c1.6,1.6,3.7,2.3,5.7,2.3c2.1,0,4.1-0.8,5.7-2.3l66.2-64.1l0,0l3-2.9l3-2.9l3.7-3.6l17.4-17.7L-264,244.3z"/>
		<path class="st2" d="M-227.2,250.2l54.2-52.5c1.6-1.6,3.7-2.3,5.7-2.3c2.1,0,4.1,0.8,5.7,2.3l54.2,52.5l12.1-11.7l-66.3-64.2
			c-1.6-1.6-3.7-2.3-5.7-2.3c-2.1,0-4.1,0.8-5.7,2.3l-66.3,64.2l-5.5,5.3l-21.5,21.8l5.8,5.6c1.6,1.6,3.7,2.3,5.7,2.3
			c2.1,0,4.1-0.8,5.7-2.3l9.7-9.4L-227.2,250.2z"/>
		<path class="st2" d="M-70.4,244.3l-3-2.9l-0.7-0.7c-0.8-0.8-1.8-1.4-2.8-1.8c-0.9-0.4-1.9-0.6-2.9-0.6c-2.1,0-4.1,0.8-5.7,2.3
			l-9.7,9.4l-12.1,11.7l-54.2,52.5c-1.6,1.6-3.7,2.3-5.7,2.3c-2.1,0-4.1-0.8-5.7-2.3l-54.2-52.5l-12.1,11.7l66.3,64.2
			c1.6,1.6,3.7,2.3,5.7,2.3c2.1,0,4.1-0.8,5.7-2.3l66.2-64.1l0,0l3-2.9l3-2.9l3.7-3.6l17.4-17.7L-70.4,244.3z"/>
		<polygon class="st2" points="-482.5,238.5 -503.9,217.7 -516,229.4 -494.6,250.2 		"/>
		<path class="st2" d="M-457.6,244.3l-3-2.9l-0.7-0.7c-0.8-0.8-1.8-1.4-2.8-1.8c-0.9-0.4-1.9-0.6-2.9-0.6c-2.1,0-4.1,0.8-5.7,2.3
			l-9.7,9.4l-12.1,11.7l-21.4,20.7l12.1,11.7l21.4-20.7l0,0l3-2.9l3-2.9l3.7-3.6l17.4-17.7L-457.6,244.3z"/>
		<polygon class="st2" points="-45.5,273.5 -24.1,294.3 -12,282.6 -33.4,261.8 		"/>
		<path class="st2" d="M-33.4,250.2l21.4-20.7l-12.1-11.7l-21.4,20.7l0,0l-3,2.9l-3,2.9l-3.7,3.6l-17.4,17.7l2.2,2.1l3,2.9l0.7,0.7
			c0.8,0.8,1.8,1.4,2.8,1.8c0.9,0.4,1.9,0.6,2.9,0.6c2.1,0,4.1-0.8,5.7-2.3l9.7-9.4L-33.4,250.2z"/>
	</g>
</g>
<g id="сетки2" class="st0">
	<g class="st1">
		<polygon class="st2" points="-201.1,250.3 -189.4,238.7 -229.4,198.8 -241,210.4 		"/>
		<polygon class="st2" points="-396.1,250.3 -384.5,238.7 -424.4,198.8 -436.1,210.4 		"/>
		<path class="st2" d="M-77.4,213.6c4.7,4.7,12.3,4.7,17,0l46.8-46.9L-25.2,155l-55.3,55.3L-77.4,213.6z"/>
		
			<rect x="-38.1" y="200.3" transform="matrix(0.7071 -0.7071 0.7071 0.7071 -160.7323 41.8718)" class="st2" width="16.5" height="29.3"/>
		
			<rect x="-38.1" y="326.1" transform="matrix(0.7071 -0.7071 0.7071 0.7071 -249.6859 78.717)" class="st2" width="16.5" height="29.3"/>
		
			<rect x="-506.4" y="156.6" transform="matrix(0.7071 -0.7071 0.7071 0.7071 -266.9928 -302.1071)" class="st2" width="16.5" height="29.3"/>
		
			<rect x="-321" y="259.2" transform="matrix(0.7071 -0.7071 0.7071 0.7071 -294.8427 -136.9669)" class="st2" width="16.5" height="56.5"/>
		<path class="st2" d="M-255.5,298.4c-4.7-4.7-12.3-4.7-17,0l-86.2,86.2c-1.6,1.6-4.1,1.6-5.7,0l-60.1-60.1l-11.6,11.6l66,66.1
			c4.7,4.7,12.3,4.7,17,0l100.7-100.7L-255.5,298.4z"/>
		<path class="st2" d="M-467.5,213.6c4.7,4.7,12.3,4.7,17,0l86.2-86.2c1.6-1.6,4.1-1.6,5.7,0l60.1,60.1l11.6-11.6l-66.1-66.1
			c-4.7-4.7-12.3-4.7-17,0l-100.7,100.7L-467.5,213.6z"/>
		
			<rect x="-506.4" y="282.4" transform="matrix(0.7071 -0.7071 0.7071 0.7071 -355.9464 -265.262)" class="st2" width="16.5" height="29.3"/>
		<path class="st2" d="M-450.5,298.4c-4.7-4.7-12.3-4.7-17,0l-46.8,46.8l11.6,11.6l55.3-55.3L-450.5,298.4z"/>
		<polygon class="st2" points="-103.6,313.2 -91.9,301.6 -131.9,261.7 -143.5,273.3 		"/>
		<path class="st2" d="M-60.4,298.4c-4.7-4.7-12.3-4.7-17,0l-86.2,86.2c-1.6,1.6-4.1,1.6-5.7,0l-60.1-60.1l-11.6,11.6l66.1,66.1
			c4.7,4.7,12.3,4.7,17,0l100.7-100.7L-60.4,298.4z"/>
		<path class="st2" d="M-370,276.5c4.7,4.7,12.3,4.7,17,0l100.7-100.7l-3.2-3.2c-4.7-4.7-12.3-4.7-17,0l-100.7,100.7L-370,276.5z"/>
		<path class="st2" d="M-447.4,175.8l-3.2-3.2c-4.7-4.7-12.3-4.7-17,0l-46.8,46.9l11.6,11.6L-447.4,175.8z"/>
		<path class="st2" d="M-158,235.6c-4.7-4.7-12.3-4.7-17,0l-100.7,100.7l3.2,3.2c4.7,4.7,12.3,4.7,17,0l100.7-100.7L-158,235.6z"/>
		<path class="st2" d="M-353.1,235.5c-4.7-4.7-12.3-4.7-17,0l-100.7,100.7l3.2,3.2c4.7,4.7,12.3,4.7,17,0l100.7-100.7L-353.1,235.5z
			"/>
		<path class="st2" d="M-80.6,336.2l3.2,3.2c4.7,4.7,12.3,4.7,17,0l46.8-46.8l-11.6-11.7L-80.6,336.2z"/>
		<path class="st2" d="M-272.5,213.6c4.7,4.7,12.3,4.7,17,0l86.2-86.2c1.6-1.6,4.1-1.6,5.7,0l60.1,60.1l11.6-11.6l-66.1-66.1
			c-4.7-4.7-12.3-4.7-17,0l-100.7,100.7L-272.5,213.6z"/>
		<path class="st2" d="M-175,276.5c4.7,4.7,12.3,4.7,17,0l100.7-100.7l-3.2-3.2c-4.7-4.7-12.3-4.7-17,0l-100.7,100.7L-175,276.5z"/>
	</g>
</g>
<g id="компоненты">
	<g>
		<path class="st2" d="M204,252h96c4.4,0,8-3.6,8-8v-40c0-4.4-3.6-8-8-8h-96c-4.4,0-8-3.6-8-8v-56H64c-33.1,0-60,26.9-60,60v128
			c0,33.1,26.9,60,60,60h236c4.4,0,8-3.6,8-8v-40c0-4.4-3.6-8-8-8h-96c-4.4,0-8-3.6-8-8v-56C196,255.6,199.6,252,204,252z M84,324.2
			c0,13.2-10.7,23.8-23.8,23.8h-0.3C46.7,348,36,337.3,36,324.2v-32.3c0-13.1,10.7-23.8,23.8-23.8h0.3c13.2,0,23.8,10.7,23.8,23.8
			v32.3H84z M84,220.2c0,13.2-10.7,23.8-23.8,23.8h-0.3C46.7,244,36,233.3,36,220.2v-32.3c0-13.1,10.7-23.8,23.8-23.8h0.3
			c13.2,0,23.8,10.7,23.8,23.8v32.3H84z"/>
		<path class="st2" d="M60.2,172h-0.3c-8.8,0-15.8,7.1-15.8,15.8v32.3c0,8.8,7.1,15.8,15.8,15.8h0.3c8.8,0,15.8-7.1,15.8-15.8v-32.3
			C76,179.1,68.9,172,60.2,172z"/>
		<path class="st2" d="M60.2,276h-0.3c-8.8,0-15.8,7.1-15.8,15.8v32.3c0,8.8,7.1,15.8,15.8,15.8h0.3c8.8,0,15.8-7.1,15.8-15.8v-32.3
			C76,283.1,68.9,276,60.2,276z"/>
	</g>
	<g>
		<path class="st2" d="M308,260h-96c-4.4,0-8,3.6-8,8v40c0,4.4,3.6,8,8,8h96c4.4,0,8,3.6,8,8v56h132c33.1,0,60-26.9,60-60V192
			c0-33.1-26.9-60-60-60H212c-4.4,0-8,3.6-8,8v40c0,4.4,3.6,8,8,8h96c4.4,0,8,3.6,8,8v56C316,256.4,312.4,260,308,260z M428,187.8
			c0-13.2,10.7-23.8,23.8-23.8h0.3c13.2,0,23.8,10.7,23.8,23.8v32.3c0,13.1-10.7,23.8-23.8,23.8h-0.3c-13.2,0-23.8-10.7-23.8-23.8
			V187.8z M428,291.8c0-13.2,10.7-23.8,23.8-23.8h0.3c13.2,0,23.8,10.7,23.8,23.8v32.3c0,13.1-10.7,23.8-23.8,23.8h-0.3
			c-13.2,0-23.8-10.7-23.8-23.8V291.8z"/>
		<path class="st2" d="M451.8,340h0.3c8.8,0,15.8-7.1,15.8-15.8v-32.3c0-8.8-7.1-15.8-15.8-15.8h-0.3c-8.8,0-15.8,7.1-15.8,15.8
			v32.3C436,332.9,443.1,340,451.8,340z"/>
		<path class="st2" d="M451.8,236h0.3c8.8,0,15.8-7.1,15.8-15.8v-32.3c0-8.8-7.1-15.8-15.8-15.8h-0.3c-8.8,0-15.8,7.1-15.8,15.8
			v32.3C436,228.9,443.1,236,451.8,236z"/>
	</g>
</g>
</svg>
