<?xml version="1.0" encoding="utf-8"?>
<!-- Generator: Adobe Illustrator 21.0.0, SVG Export Plug-In . SVG Version: 6.00 Build 0)  -->
<svg version="1.1" id="Слой_1" xmlns="http://www.w3.org/2000/svg" xmlns:xlink="http://www.w3.org/1999/xlink" x="0px" y="0px"
	 viewBox="0 0 512 512" style="enable-background:new 0 0 512 512;" xml:space="preserve">
<style type="text/css">
	.st0{fill:#999999;}
	.st1{display:none;}
	.st2{display:inline;}
</style>
<g id="приводы">
	<g>
		<path class="st0" d="M284,144h-28c-2.2,0-4,1.8-4,4v216c0,2.2,1.8,4,4,4h28c2.2,0,4-1.8,4-4V148C288,145.8,286.2,144,284,144z"/>
		<path class="st0" d="M506.3,198.8L480,180h-48v-48c0-2.2-1.8-4-4-4h-80c-2.2,0-4,1.8-4,4v48h-52v152h188l26.3-18.8
			c1.1-0.8,1.7-2,1.7-3.3V202.1C508,200.8,507.4,199.6,506.3,198.8z M388,136c11,0,20,9,20,20s-9,20-20,20s-20-9-20-20
			S377,136,388,136z M448,316.2c0,2.2-1.8,4-4,4H332c-2.2,0-4-1.8-4-4v-0.1c0-2.2,1.8-4,4-4h112C446.2,312.1,448,313.9,448,316.2
			L448,316.2z M448,300.2c0,2.2-1.8,4-4,4H332c-2.2,0-4-1.8-4-4v-0.1c0-2.2,1.8-4,4-4h112C446.2,296.1,448,297.9,448,300.2
			L448,300.2z M448,284.2c0,2.2-1.8,4-4,4H332c-2.2,0-4-1.8-4-4v-0.1c0-2.2,1.8-4,4-4h112C446.2,280.1,448,281.9,448,284.2
			L448,284.2z M448,228.2c0,2.2-1.8,4-4,4H332c-2.2,0-4-1.8-4-4v-0.1c0-2.2,1.8-4,4-4h112C446.2,224.1,448,225.9,448,228.2
			L448,228.2z M448,212.2c0,2.2-1.8,4-4,4H332c-2.2,0-4-1.8-4-4v-0.1c0-2.2,1.8-4,4-4h112C446.2,208.1,448,209.9,448,212.2
			L448,212.2z M448,196.2c0,2.2-1.8,4-4,4H332c-2.2,0-4-1.8-4-4v-0.1c0-2.2,1.8-4,4-4h112C446.2,192.1,448,193.9,448,196.2
			L448,196.2z"/>
		<circle class="st0" cx="388" cy="156" r="12"/>
		<path class="st0" d="M224,147.9c0-2.2-1.8-4-4-4h-22.3c-1.1,0-2.1,0.4-2.8,1.2l-9.7,9.7c-0.8,0.8-1.2,1.8-1.2,2.8V174l-36,10h-28
			v144h28l72,20h28V164h-24V147.9z M204,165.9c-4.4,0-8-3.6-8-8s3.6-8,8-8s8,3.6,8,8C212,162.4,208.4,165.9,204,165.9z"/>
		<circle class="st0" cx="204" cy="157.9" r="4"/>
		<path class="st0" d="M112,164h-4c-2.2,0-4,1.8-4,4v28h-8c-2.2,0-4,1.8-4,4v32h-8c-2.2,0-4,1.8-4,4v8h-4v-4c0-2.2-1.8-4-4-4H36
			c-2.2,0-4,1.8-4,4v4H8c-2.2,0-4,1.8-4,4v16c0,2.2,1.8,4,4,4h72v8c0,2.2,1.8,4,4,4h8v32c0,2.2,1.8,4,4,4h8v28c0,2.2,1.8,4,4,4h4
			c2.2,0,4-1.8,4-4V168C116,165.8,114.2,164,112,164z"/>
	</g>
</g>
<g id="сетки" class="st1">
	<g class="st2">
		<path class="st0" d="M619.2,250.2l54.2-52.5c1.6-1.6,3.7-2.3,5.7-2.3c2.1,0,4.1,0.8,5.7,2.3l54.2,52.5l12.1-11.7l-66.3-64.2
			c-1.6-1.6-3.7-2.3-5.7-2.3c-2.1,0-4.1,0.8-5.7,2.3l-66.3,64.2l-5.5,5.3l-21.5,21.8l5.8,5.6c1.6,1.6,3.7,2.3,5.7,2.3
			c2.1,0,4.1-0.8,5.7-2.3l9.7-9.4L619.2,250.2z"/>
		<path class="st0" d="M776,244.3l-3-2.9l-0.7-0.7c-0.8-0.8-1.8-1.4-2.8-1.8c-0.9-0.4-1.9-0.6-2.9-0.6c-2.1,0-4.1,0.8-5.7,2.3
			l-9.7,9.4l-12.1,11.7l-54.2,52.5c-1.6,1.6-3.7,2.3-5.7,2.3c-2.1,0-4.1-0.8-5.7-2.3l-54.2-52.5l-12.1,11.7l66.3,64.2
			c1.6,1.6,3.7,2.3,5.7,2.3c2.1,0,4.1-0.8,5.7-2.3l66.2-64.1l0,0l3-2.9l3-2.9l3.7-3.6l17.4-17.7L776,244.3z"/>
		<path class="st0" d="M812.8,250.2l54.2-52.5c1.6-1.6,3.7-2.3,5.7-2.3c2.1,0,4.1,0.8,5.7,2.3l54.2,52.5l12.1-11.7l-66.3-64.2
			c-1.6-1.6-3.7-2.3-5.7-2.3c-2.1,0-4.1,0.8-5.7,2.3l-66.3,64.2l-5.5,5.3l-21.5,21.8l5.8,5.6c1.6,1.6,3.7,2.3,5.7,2.3
			c2.1,0,4.1-0.8,5.7-2.3l9.7-9.4L812.8,250.2z"/>
		<path class="st0" d="M969.6,244.3l-3-2.9l-0.7-0.7c-0.8-0.8-1.8-1.4-2.8-1.8c-0.9-0.4-1.9-0.6-2.9-0.6c-2.1,0-4.1,0.8-5.7,2.3
			l-9.7,9.4l-12.1,11.7l-54.2,52.5c-1.6,1.6-3.7,2.3-5.7,2.3c-2.1,0-4.1-0.8-5.7-2.3l-54.2-52.5l-12.1,11.7l66.3,64.2
			c1.6,1.6,3.7,2.3,5.7,2.3c2.1,0,4.1-0.8,5.7-2.3l66.2-64.1l0,0l3-2.9l3-2.9l3.7-3.6l17.4-17.7L969.6,244.3z"/>
		<polygon class="st0" points="557.5,238.5 536.1,217.7 524,229.4 545.4,250.2 		"/>
		<path class="st0" d="M582.4,244.3l-3-2.9l-0.7-0.7c-0.8-0.8-1.8-1.4-2.8-1.8c-0.9-0.4-1.9-0.6-2.9-0.6c-2.1,0-4.1,0.8-5.7,2.3
			l-9.7,9.4l-12.1,11.7L524,282.6l12.1,11.7l21.4-20.7l0,0l3-2.9l3-2.9l3.7-3.6l17.4-17.7L582.4,244.3z"/>
		<polygon class="st0" points="994.5,273.5 1015.9,294.3 1028,282.6 1006.6,261.8 		"/>
		<path class="st0" d="M1006.6,250.2l21.4-20.7l-12.1-11.7l-21.4,20.7l0,0l-3,2.9l-3,2.9l-3.7,3.6l-17.4,17.7l2.2,2.1l3,2.9l0.7,0.7
			c0.8,0.8,1.8,1.4,2.8,1.8c0.9,0.4,1.9,0.6,2.9,0.6c2.1,0,4.1-0.8,5.7-2.3l9.7-9.4L1006.6,250.2z"/>
	</g>
</g>
<g id="сетки2" class="st1">
	<g class="st2">
		<polygon class="st0" points="838.9,250.3 850.6,238.7 810.6,198.8 799,210.4 		"/>
		<polygon class="st0" points="643.9,250.3 655.5,238.7 615.6,198.8 603.9,210.4 		"/>
		<path class="st0" d="M962.6,213.6c4.7,4.7,12.3,4.7,17,0l46.8-46.9l-11.6-11.7l-55.3,55.3L962.6,213.6z"/>
		
			<rect x="1001.9" y="200.3" transform="matrix(0.7071 -0.7071 0.7071 0.7071 143.87 777.2589)" class="st0" width="16.5" height="29.3"/>
		
			<rect x="1001.9" y="326.1" transform="matrix(0.7071 -0.7071 0.7071 0.7071 54.9165 814.1041)" class="st0" width="16.5" height="29.3"/>
		
			<rect x="533.6" y="156.6" transform="matrix(0.7071 -0.7071 0.7071 0.7071 37.6094 433.2799)" class="st0" width="16.5" height="29.3"/>
		
			<rect x="719" y="259.2" transform="matrix(0.7071 -0.7071 0.7071 0.7071 9.7592 598.4213)" class="st0" width="16.5" height="56.5"/>
		<path class="st0" d="M784.5,298.4c-4.7-4.7-12.3-4.7-17,0l-86.2,86.2c-1.6,1.6-4.1,1.6-5.7,0l-60.1-60.1l-11.6,11.6l66,66.1
			c4.7,4.7,12.3,4.7,17,0l100.7-100.7L784.5,298.4z"/>
		<path class="st0" d="M572.5,213.6c4.7,4.7,12.3,4.7,17,0l86.2-86.2c1.6-1.6,4.1-1.6,5.7,0l60.1,60.1l11.6-11.6L687,109.8
			c-4.7-4.7-12.3-4.7-17,0L569.3,210.4L572.5,213.6z"/>
		
			<rect x="533.6" y="282.4" transform="matrix(0.7071 -0.7071 0.7071 0.7071 -51.3441 470.1251)" class="st0" width="16.5" height="29.3"/>
		<path class="st0" d="M589.5,298.4c-4.7-4.7-12.3-4.7-17,0l-46.8,46.8l11.6,11.6l55.3-55.3L589.5,298.4z"/>
		<polygon class="st0" points="936.4,313.2 948.1,301.6 908.1,261.7 896.5,273.3 		"/>
		<path class="st0" d="M979.6,298.4c-4.7-4.7-12.3-4.7-17,0l-86.2,86.2c-1.6,1.6-4.1,1.6-5.7,0l-60.1-60.1L799,336.2l66.1,66.1
			c4.7,4.7,12.3,4.7,17,0l100.7-100.7L979.6,298.4z"/>
		<path class="st0" d="M670,276.5c4.7,4.7,12.3,4.7,17,0l100.7-100.7l-3.2-3.2c-4.7-4.7-12.3-4.7-17,0L666.8,273.3L670,276.5z"/>
		<path class="st0" d="M592.6,175.8l-3.2-3.2c-4.7-4.7-12.3-4.7-17,0l-46.8,46.9l11.6,11.6L592.6,175.8z"/>
		<path class="st0" d="M882,235.6c-4.7-4.7-12.3-4.7-17,0L764.4,336.2l3.2,3.2c4.7,4.7,12.3,4.7,17,0l100.7-100.7L882,235.6z"/>
		<path class="st0" d="M686.9,235.5c-4.7-4.7-12.3-4.7-17,0L569.3,336.2l3.2,3.2c4.7,4.7,12.3,4.7,17,0l100.7-100.7L686.9,235.5z"/>
		<path class="st0" d="M959.4,336.2l3.2,3.2c4.7,4.7,12.3,4.7,17,0l46.8-46.8l-11.6-11.7L959.4,336.2z"/>
		<path class="st0" d="M767.5,213.6c4.7,4.7,12.3,4.7,17,0l86.2-86.2c1.6-1.6,4.1-1.6,5.7,0l60.1,60.1l11.6-11.6L882,109.7
			c-4.7-4.7-12.3-4.7-17,0L764.3,210.4L767.5,213.6z"/>
		<path class="st0" d="M865,276.5c4.7,4.7,12.3,4.7,17,0l100.7-100.7l-3.2-3.2c-4.7-4.7-12.3-4.7-17,0L861.9,273.3L865,276.5z"/>
	</g>
</g>
</svg>
