<?xml version="1.0" encoding="utf-8"?>
<!-- Generator: Adobe Illustrator 21.0.0, SVG Export Plug-In . SVG Version: 6.00 Build 0)  -->
<svg version="1.1" id="Слой_1" xmlns="http://www.w3.org/2000/svg" xmlns:xlink="http://www.w3.org/1999/xlink" x="0px" y="0px"
	 viewBox="0 0 512 512" style="enable-background:new 0 0 512 512;" xml:space="preserve">
<style type="text/css">
	.st0{display:none;}
	.st1{display:inline;}
	.st2{fill:#999999;}
</style>
<g id="сетки" class="st0">
	<g class="st1">
		<path class="st2" d="M-1460.8,250.2l54.2-52.5c1.6-1.6,3.7-2.3,5.7-2.3c2.1,0,4.1,0.8,5.7,2.3l54.2,52.5l12.1-11.7l-66.3-64.2
			c-1.6-1.6-3.7-2.3-5.7-2.3c-2.1,0-4.1,0.8-5.7,2.3l-66.3,64.2l-5.5,5.3l-21.5,21.8l5.8,5.6c1.6,1.6,3.7,2.3,5.7,2.3
			c2.1,0,4.1-0.8,5.7-2.3l9.7-9.4L-1460.8,250.2z"/>
		<path class="st2" d="M-1304,244.3l-3-2.9l-0.7-0.7c-0.8-0.8-1.8-1.4-2.8-1.8c-0.9-0.4-1.9-0.6-2.9-0.6c-2.1,0-4.1,0.8-5.7,2.3
			l-9.7,9.4l-12.1,11.7l-54.2,52.5c-1.6,1.6-3.7,2.3-5.7,2.3c-2.1,0-4.1-0.8-5.7-2.3l-54.2-52.5l-12.1,11.7l66.3,64.2
			c1.6,1.6,3.7,2.3,5.7,2.3c2.1,0,4.1-0.8,5.7-2.3l66.2-64.1l0,0l3-2.9l3-2.9l3.7-3.6l17.4-17.7L-1304,244.3z"/>
		<path class="st2" d="M-1267.2,250.2l54.2-52.5c1.6-1.6,3.7-2.3,5.7-2.3c2.1,0,4.1,0.8,5.7,2.3l54.2,52.5l12.1-11.7l-66.3-64.2
			c-1.6-1.6-3.7-2.3-5.7-2.3c-2.1,0-4.1,0.8-5.7,2.3l-66.3,64.2l-5.5,5.3l-21.5,21.8l5.8,5.6c1.6,1.6,3.7,2.3,5.7,2.3
			c2.1,0,4.1-0.8,5.7-2.3l9.7-9.4L-1267.2,250.2z"/>
		<path class="st2" d="M-1110.4,244.3l-3-2.9l-0.7-0.7c-0.8-0.8-1.8-1.4-2.8-1.8c-0.9-0.4-1.9-0.6-2.9-0.6c-2.1,0-4.1,0.8-5.7,2.3
			l-9.7,9.4l-12.1,11.7l-54.2,52.5c-1.6,1.6-3.7,2.3-5.7,2.3c-2.1,0-4.1-0.8-5.7-2.3l-54.2-52.5l-12.1,11.7l66.3,64.2
			c1.6,1.6,3.7,2.3,5.7,2.3c2.1,0,4.1-0.8,5.7-2.3l66.2-64.1l0,0l3-2.9l3-2.9l3.7-3.6l17.4-17.7L-1110.4,244.3z"/>
		<polygon class="st2" points="-1522.5,238.5 -1543.9,217.7 -1556,229.4 -1534.6,250.2 		"/>
		<path class="st2" d="M-1497.6,244.3l-3-2.9l-0.7-0.7c-0.8-0.8-1.8-1.4-2.8-1.8c-0.9-0.4-1.9-0.6-2.9-0.6c-2.1,0-4.1,0.8-5.7,2.3
			l-9.7,9.4l-12.1,11.7l-21.4,20.7l12.1,11.7l21.4-20.7l0,0l3-2.9l3-2.9l3.7-3.6l17.4-17.7L-1497.6,244.3z"/>
		<polygon class="st2" points="-1085.5,273.5 -1064.1,294.3 -1052,282.6 -1073.4,261.8 		"/>
		<path class="st2" d="M-1073.4,250.2l21.4-20.7l-12.1-11.7l-21.4,20.7l0,0l-3,2.9l-3,2.9l-3.7,3.6l-17.4,17.7l2.2,2.1l3,2.9
			l0.7,0.7c0.8,0.8,1.8,1.4,2.8,1.8c0.9,0.4,1.9,0.6,2.9,0.6c2.1,0,4.1-0.8,5.7-2.3l9.7-9.4L-1073.4,250.2z"/>
	</g>
</g>
<g id="сетки2" class="st0">
	<g class="st1">
		<polygon class="st2" points="-1241.1,250.3 -1229.4,238.7 -1269.4,198.8 -1281,210.4 		"/>
		<polygon class="st2" points="-1436.1,250.3 -1424.5,238.7 -1464.4,198.8 -1476.1,210.4 		"/>
		<path class="st2" d="M-1117.4,213.6c4.7,4.7,12.3,4.7,17,0l46.8-46.9l-11.6-11.7l-55.3,55.3L-1117.4,213.6z"/>
		
			<rect x="-1078.1" y="200.3" transform="matrix(0.7071 -0.7071 0.7071 0.7071 -465.3347 -693.5152)" class="st2" width="16.5" height="29.3"/>
		
			<rect x="-1078.1" y="326.1" transform="matrix(0.7071 -0.7071 0.7071 0.7071 -554.2882 -656.67)" class="st2" width="16.5" height="29.3"/>
		
			<rect x="-1546.4" y="156.6" transform="matrix(0.7071 -0.7071 0.7071 0.7071 -571.5953 -1037.4941)" class="st2" width="16.5" height="29.3"/>
		
			<rect x="-1361" y="259.2" transform="matrix(0.7071 -0.7071 0.7071 0.7071 -599.4445 -872.355)" class="st2" width="16.5" height="56.5"/>
		<path class="st2" d="M-1295.5,298.4c-4.7-4.7-12.3-4.7-17,0l-86.2,86.2c-1.6,1.6-4.1,1.6-5.7,0l-60.1-60.1l-11.6,11.6l66,66.1
			c4.7,4.7,12.3,4.7,17,0l100.7-100.7L-1295.5,298.4z"/>
		<path class="st2" d="M-1507.5,213.6c4.7,4.7,12.3,4.7,17,0l86.2-86.2c1.6-1.6,4.1-1.6,5.7,0l60.1,60.1l11.6-11.6l-66.1-66.1
			c-4.7-4.7-12.3-4.7-17,0l-100.7,100.7L-1507.5,213.6z"/>
		
			<rect x="-1546.4" y="282.4" transform="matrix(0.7071 -0.7071 0.7071 0.7071 -660.5488 -1000.649)" class="st2" width="16.5" height="29.3"/>
		<path class="st2" d="M-1490.5,298.4c-4.7-4.7-12.3-4.7-17,0l-46.8,46.8l11.6,11.6l55.3-55.3L-1490.5,298.4z"/>
		<polygon class="st2" points="-1143.6,313.2 -1131.9,301.6 -1171.9,261.7 -1183.5,273.3 		"/>
		<path class="st2" d="M-1100.4,298.4c-4.7-4.7-12.3-4.7-17,0l-86.2,86.2c-1.6,1.6-4.1,1.6-5.7,0l-60.1-60.1l-11.6,11.6l66.1,66.1
			c4.7,4.7,12.3,4.7,17,0l100.7-100.7L-1100.4,298.4z"/>
		<path class="st2" d="M-1410,276.5c4.7,4.7,12.3,4.7,17,0l100.7-100.7l-3.2-3.2c-4.7-4.7-12.3-4.7-17,0l-100.7,100.7L-1410,276.5z"
			/>
		<path class="st2" d="M-1487.4,175.8l-3.2-3.2c-4.7-4.7-12.3-4.7-17,0l-46.8,46.9l11.6,11.6L-1487.4,175.8z"/>
		<path class="st2" d="M-1198,235.6c-4.7-4.7-12.3-4.7-17,0l-100.7,100.7l3.2,3.2c4.7,4.7,12.3,4.7,17,0l100.7-100.7L-1198,235.6z"
			/>
		<path class="st2" d="M-1393.1,235.5c-4.7-4.7-12.3-4.7-17,0l-100.7,100.7l3.2,3.2c4.7,4.7,12.3,4.7,17,0l100.7-100.7
			L-1393.1,235.5z"/>
		<path class="st2" d="M-1120.6,336.2l3.2,3.2c4.7,4.7,12.3,4.7,17,0l46.8-46.8l-11.6-11.7L-1120.6,336.2z"/>
		<path class="st2" d="M-1312.5,213.6c4.7,4.7,12.3,4.7,17,0l86.2-86.2c1.6-1.6,4.1-1.6,5.7,0l60.1,60.1l11.6-11.6l-66.1-66.1
			c-4.7-4.7-12.3-4.7-17,0l-100.7,100.7L-1312.5,213.6z"/>
		<path class="st2" d="M-1215,276.5c4.7,4.7,12.3,4.7,17,0l100.7-100.7l-3.2-3.2c-4.7-4.7-12.3-4.7-17,0l-100.7,100.7L-1215,276.5z"
			/>
	</g>
</g>
<g id="ленты">
	<g>
		<path class="st2" d="M54,272c21.3,0,39.9,11.5,50,28.6V182c0-27.6-22.4-50-50-50S4,154.4,4,182v118.6C14.1,283.5,32.7,272,54,272z
			"/>
		<path class="st2" d="M112,184v146c0,0.4,0,0.9,0,1.3c-0.4,20.7-11.8,38.8-28.6,48.7H112h396V184H112z M401.2,193.2
			c1.6-1.6,4.1-1.6,5.7,0l91.8,91.8c1.6,1.6,1.6,4.1,0,5.7c-0.8,0.8-1.8,1.2-2.8,1.2s-2.1-0.4-2.8-1.2l-91.8-91.8
			C399.6,197.3,399.6,194.7,401.2,193.2z M138.8,370.8c-0.8,0.8-1.8,1.2-2.8,1.2s-2.1-0.4-2.8-1.2l-11.7-11.7
			c-1.6-1.6-1.6-4.1,0-5.7s4.1-1.6,5.7,0l11.7,11.7C140.4,366.7,140.4,369.3,138.8,370.8z M178.8,370.8c-0.8,0.8-1.8,1.2-2.8,1.2
			s-2.1-0.4-2.8-1.2l-52-52c-1.6-1.6-1.6-4.1,0-5.7s4.1-1.6,5.7,0l52,52C180.4,366.7,180.4,369.3,178.8,370.8z M218.8,370.8
			c-0.8,0.8-1.8,1.2-2.8,1.2s-2.1-0.4-2.8-1.2l-92-92c-1.6-1.6-1.6-4.1,0-5.7s4.1-1.6,5.7,0l92,92
			C220.4,366.7,220.4,369.3,218.8,370.8z M258.8,370.8c-0.8,0.8-1.8,1.2-2.8,1.2s-2.1-0.4-2.8-1.2l-132-132c-1.6-1.6-1.6-4.1,0-5.7
			s4.1-1.6,5.7,0l132,132C260.4,366.7,260.4,369.3,258.8,370.8z M298.8,370.8c-0.8,0.8-1.8,1.2-2.8,1.2s-2.1-0.4-2.8-1.2l-172-172
			c-1.6-1.6-1.6-4.1,0-5.7s4.1-1.6,5.7,0l172,172C300.4,366.7,300.4,369.3,298.8,370.8z M338.8,370.8c-0.8,0.8-1.8,1.2-2.8,1.2
			s-2.1-0.4-2.8-1.2l-172-172c-1.6-1.6-1.6-4.1,0-5.7s4.1-1.6,5.7,0l172,172C340.4,366.7,340.4,369.3,338.8,370.8z M378.8,370.8
			c-0.8,0.8-1.8,1.2-2.8,1.2s-2.1-0.4-2.8-1.2l-172-172c-1.6-1.6-1.6-4.1,0-5.7s4.1-1.6,5.7,0l172,172
			C380.4,366.7,380.4,369.3,378.8,370.8z M418.8,370.8c-0.8,0.8-1.8,1.2-2.8,1.2s-2.1-0.4-2.8-1.2l-172-172c-1.6-1.6-1.6-4.1,0-5.7
			s4.1-1.6,5.7,0l172,172C420.4,366.7,420.4,369.3,418.8,370.8z M458.8,370.8c-0.8,0.8-1.8,1.2-2.8,1.2s-2.1-0.4-2.8-1.2l-172-172
			c-1.6-1.6-1.6-4.1,0-5.7s4.1-1.6,5.7,0l172,172C460.4,366.7,460.4,369.3,458.8,370.8z M498.8,370.8c-0.8,0.8-1.8,1.2-2.8,1.2
			s-2.1-0.4-2.8-1.2l-172-172c-1.6-1.6-1.6-4.1,0-5.7s4.1-1.6,5.7,0l172,172C500.4,366.7,500.4,369.3,498.8,370.8z M498.8,330.8
			c-0.8,0.8-1.8,1.2-2.8,1.2s-2.1-0.4-2.8-1.2l-132-132c-1.6-1.6-1.6-4.1,0-5.7s4.1-1.6,5.7,0l132,132
			C500.4,326.7,500.4,329.3,498.8,330.8z M498.8,250.8c-0.8,0.8-1.8,1.2-2.8,1.2s-2.1-0.4-2.8-1.2l-52-52c-1.6-1.6-1.6-4.1,0-5.7
			s4.1-1.6,5.7,0l52,52C500.4,246.7,500.4,249.3,498.8,250.8z M498.8,210.8c-0.8,0.8-1.8,1.2-2.8,1.2s-2.1-0.4-2.8-1.2l-12-12
			c-1.6-1.6-1.6-4.1,0-5.7s4.1-1.6,5.7,0l12,12C500.4,206.7,500.4,209.3,498.8,210.8z"/>
		<circle class="st2" cx="54" cy="330" r="14"/>
		<path class="st2" d="M104,330c0-27.6-22.4-50-50-50S4,302.4,4,330s22.4,50,50,50S104,357.6,104,330z M54,368c-21,0-38-17-38-38
			s17-38,38-38s38,17,38,38S75,368,54,368z"/>
		<path class="st2" d="M54,300c-16.6,0-30,13.4-30,30s13.4,30,30,30s30-13.4,30-30S70.6,300,54,300z M54,352c-12.1,0-22-9.9-22-22
			c0-12.2,9.9-22,22-22s22,9.8,22,22C76,342.1,66.1,352,54,352z"/>
	</g>
</g>
</svg>
