<?xml version="1.0" encoding="utf-8"?>
<!-- Generator: Adobe Illustrator 21.0.0, SVG Export Plug-In . SVG Version: 6.00 Build 0)  -->
<svg version="1.1" id="Слой_1" xmlns="http://www.w3.org/2000/svg" xmlns:xlink="http://www.w3.org/1999/xlink" x="0px" y="0px"
	 viewBox="0 0 512 512" style="enable-background:new 0 0 512 512;" xml:space="preserve">
<style type="text/css">
	.st0{fill:#999999;}
	.st1{display:none;}
	.st2{display:inline;}
</style>
<g id="замки">
	<g>
		<path class="st0" d="M424,172c-11.3,0-22.1,2.2-32,6.3c-3.8,1.6-7.5,3.4-11,5.5c-12.6,5.4-26.4,8.4-41,8.4s-28.4-3-41-8.4
			c-1-0.6-2-1.1-3-1.7c-0.6-0.3-1.1-0.6-1.7-0.9c-1.6-0.8-3.2-1.6-4.9-2.3c-0.5-0.2-0.9-0.4-1.4-0.6c-1.2-0.5-2.5-1-3.7-1.4
			c-0.6-0.2-1.3-0.4-1.9-0.7c-0.6-0.2-1.3-0.4-1.9-0.6c-0.6-0.2-1.3-0.4-1.9-0.6c-0.5-0.2-1.1-0.3-1.6-0.4c-0.6-0.2-1.2-0.3-1.8-0.5
			c0,0,0,0-0.1,0c-0.6-0.1-1.2-0.3-1.9-0.4c-0.1,0-0.1,0-0.2,0c-0.5-0.1-1-0.2-1.5-0.3c-3.1-0.6-6.2-1-9.4-1.2
			c-0.6,0-1.2-0.1-1.8-0.1c-1.4-0.1-2.8-0.1-4.2-0.1c-1.4,0-2.8,0-4.2,0.1c-0.6,0-1.2,0.1-1.8,0.1c-3.2,0.2-6.3,0.6-9.4,1.2
			c-0.5,0.1-1,0.2-1.5,0.3c-0.1,0-0.1,0-0.2,0c-0.6,0.1-1.3,0.3-1.9,0.4c0,0,0,0-0.1,0c-0.6,0.1-1.2,0.3-1.8,0.5
			c-0.5,0.1-1.1,0.3-1.6,0.4c-0.7,0.2-1.3,0.4-1.9,0.6c-0.7,0.2-1.3,0.4-1.9,0.6c-0.6,0.2-1.3,0.4-1.9,0.7c-1.3,0.4-2.5,0.9-3.7,1.4
			c-0.5,0.2-1,0.4-1.4,0.6c-1.7,0.7-3.3,1.5-4.9,2.3c-0.6,0.3-1.1,0.6-1.7,0.9c-1,0.5-2,1.1-3,1.7c-24.6,14.7-41,41.5-41,72.2
			c0,31,16.8,58.1,41.8,72.6l0,0c0.7,0.4,1.4,0.8,2.1,1.2c0.1,0.1,0.2,0.1,0.3,0.2c0.7,0.4,1.3,0.7,2,1c0.1,0.1,0.3,0.1,0.4,0.2
			c0.6,0.3,1.3,0.6,1.9,0.9c0.1,0,0.1,0.1,0.2,0.1c0.8,0.4,1.6,0.7,2.4,1c6.4,2.7,13.1,4.6,20.2,5.7c1.3,0.2,2.6,0.4,4,0.5
			c2.8,0.3,5.7,0.4,8.6,0.4c2.9,0,5.8-0.1,8.6-0.4c1.3-0.1,2.6-0.3,4-0.5c7-1.1,13.8-3,20.2-5.7c0,0,0,0,0.1,0
			c0.8-0.3,1.6-0.7,2.4-1c0.1,0,0.1-0.1,0.2-0.1c0.7-0.3,1.3-0.6,1.9-0.9c0.1-0.1,0.3-0.1,0.4-0.2c0.7-0.3,1.4-0.7,2-1
			c0.1,0,0.2-0.1,0.3-0.2c0.7-0.4,1.4-0.8,2.1-1.2l0,0c12.8-5.6,26.9-8.7,41.8-8.7s29,3.1,41.8,8.7c3,1.8,6.2,3.4,9.4,4.7
			c0,0,0,0,0.1,0c10,4.2,21.1,6.6,32.7,6.6c46.4,0,84-37.6,84-84C508,209.6,470.4,172,424,172z M256,284.7c-3.6,0-7.1-0.7-10.4-1.9
			l0,0l-0.5-0.2c-0.1,0-0.2-0.1-0.2-0.1l-0.7-0.3c-0.9-0.4-1.7-0.8-2.5-1.3c-8.8-5.1-14.2-14.6-14.2-24.8c0-10,5.4-19.5,14-24.6
			c1.2-0.7,2.5-1.3,3.8-1.9c3.4-1.4,7.1-2.2,10.9-2.2c15.8,0,28.7,12.9,28.7,28.7S271.8,284.7,256,284.7z M424,284.7
			c-3.6,0-7.1-0.7-10.4-1.9l0,0l-0.5-0.2c-0.1,0-0.2-0.1-0.2-0.1l-0.7-0.3c-0.9-0.4-1.7-0.8-2.5-1.3c-8.8-5.1-14.2-14.6-14.2-24.8
			c0-10,5.4-19.5,14-24.6c1.2-0.7,2.5-1.3,3.8-1.9c3.4-1.4,7.1-2.2,10.9-2.2c15.8,0,28.7,12.9,28.7,28.7S439.8,284.7,424,284.7z"/>
		<path class="st0" d="M164.1,256c0-25.7,10.6-49,27.7-65.7c-0.8,0.2-1.6,0.3-2.4,0.4c-0.7,0.1-1.3,0.2-2,0.3c-0.3,0-0.6,0.1-1,0.1
			c-0.6,0.1-1.3,0.2-1.9,0.2c-0.8,0.1-1.6,0.2-2.4,0.3c-0.7,0.1-1.3,0.1-2,0.2c-0.7,0.1-1.5,0.1-2.2,0.1c-0.2,0-0.4,0-0.6,0
			c-0.8,0-1.7,0.1-2.6,0.1c-0.9,0-1.8,0-2.7,0c-14.6,0-28.4-3-41-8.4c-0.4-0.3-0.9-0.5-1.3-0.8c-0.3-0.2-0.6-0.4-1-0.5
			c-0.2-0.1-0.4-0.2-0.7-0.4c-0.6-0.3-1.1-0.6-1.7-0.9c-0.4-0.2-0.9-0.5-1.3-0.7s-0.7-0.4-1.1-0.5c-0.8-0.4-1.6-0.8-2.5-1.1
			c-0.5-0.2-0.9-0.4-1.4-0.6c-1.2-0.5-2.5-1-3.7-1.4c-0.6-0.2-1.3-0.4-1.9-0.7c-0.6-0.2-1.3-0.4-1.9-0.6c-0.6-0.2-1.3-0.4-1.9-0.6
			c-0.5-0.1-1-0.3-1.5-0.4H109c-0.3-0.1-0.6-0.2-0.9-0.2c-0.3-0.1-0.6-0.2-0.9-0.2c0,0,0,0-0.1,0c-0.4-0.1-0.9-0.2-1.3-0.3
			c-0.2,0-0.3-0.1-0.5-0.1c-0.1,0-0.1,0-0.2,0c-0.5-0.1-1-0.2-1.5-0.3c-0.6-0.1-1.2-0.2-1.9-0.3c-0.3,0-0.6-0.1-0.8-0.1
			c-0.7-0.1-1.4-0.2-2-0.3c-0.7-0.1-1.3-0.2-2-0.2c-0.9-0.1-1.8-0.2-2.7-0.2c-0.6,0-1.2-0.1-1.8-0.1c-1.4-0.1-2.8-0.1-4.2-0.1
			c-1.4,0-2.8,0-4.2,0.1c-0.6,0-1.2,0.1-1.8,0.1h-0.1c-0.5,0-1,0.1-1.5,0.1c-1.9,0.2-3.9,0.4-5.8,0.7c-0.7,0.1-1.3,0.2-2,0.3
			c-0.1,0-0.2,0-0.2,0c-0.4,0.1-0.8,0.1-1.2,0.2c-0.1,0-0.1,0-0.2,0c-0.6,0.1-1.2,0.2-1.7,0.4h-0.1c0,0,0,0-0.1,0
			c-0.6,0.1-1.2,0.3-1.7,0.4h-0.1c-0.5,0.1-1.1,0.3-1.6,0.4c-0.3,0.1-0.6,0.1-0.8,0.2c-0.4,0.1-0.8,0.2-1.1,0.3
			c-0.7,0.2-1.3,0.4-1.9,0.6c-0.3,0.1-0.6,0.2-0.9,0.3c-0.3,0.1-0.6,0.2-0.9,0.3c-0.5,0.2-1,0.4-1.5,0.6c-0.2,0.1-0.3,0.1-0.5,0.2
			c-0.6,0.2-1.2,0.5-1.8,0.7c-0.2,0.1-0.5,0.2-0.7,0.3s-0.4,0.2-0.6,0.2c-0.1,0-0.1,0-0.2,0.1c-1.7,0.7-3.3,1.5-4.9,2.3
			c-0.6,0.3-1.1,0.6-1.7,0.9c-0.5,0.3-1,0.5-1.5,0.8c-0.4,0.2-0.8,0.4-1.1,0.7c-0.1,0.1-0.2,0.1-0.3,0.2c0,0-0.1,0-0.1,0.1
			c-0.7,0.4-1.5,0.9-2.2,1.3c-0.7,0.4-1.4,0.9-2,1.4c-0.2,0.1-0.4,0.3-0.6,0.4c-0.4,0.3-0.9,0.6-1.3,0.9c-0.2,0.2-0.5,0.3-0.7,0.5
			c-0.6,0.5-1.3,0.9-1.9,1.4c-0.7,0.5-1.4,1.1-2.1,1.7c-0.6,0.5-1.2,1-1.8,1.6c-0.1,0.1-0.2,0.2-0.4,0.3c-0.6,0.5-1.2,1.1-1.8,1.7
			l-0.1,0.1c-0.6,0.6-1.2,1.2-1.8,1.8l0,0c-0.5,0.5-1,1-1.5,1.6c-0.2,0.2-0.4,0.4-0.5,0.6c-0.4,0.5-0.9,0.9-1.3,1.4
			c-0.1,0.1-0.3,0.3-0.4,0.4c-0.5,0.6-1.1,1.2-1.6,1.9l0,0c-0.6,0.7-1.1,1.4-1.6,2.1c-0.5,0.6-1,1.3-1.5,2c-0.1,0.1-0.2,0.3-0.3,0.4
			c-0.4,0.6-0.9,1.3-1.3,1.9c-0.1,0.2-0.2,0.3-0.3,0.5c-0.3,0.5-0.7,1-1,1.5c-0.1,0.2-0.3,0.4-0.4,0.6c-0.3,0.5-0.6,0.9-0.8,1.4
			c-0.2,0.3-0.4,0.6-0.6,0.9c-0.3,0.6-0.6,1.1-0.9,1.7c-0.4,0.7-0.7,1.3-1.1,2c-0.5,1-1,2.1-1.5,3.2c-0.2,0.5-0.5,1-0.7,1.6
			c-0.1,0.3-0.3,0.6-0.4,0.9c-0.2,0.5-0.5,1.1-0.7,1.7c-0.2,0.6-0.4,1.1-0.7,1.7c-0.5,1.4-1,2.8-1.5,4.3c-0.2,0.6-0.4,1.2-0.5,1.8
			c-0.2,0.7-0.4,1.3-0.5,2c-0.2,0.7-0.3,1.4-0.5,2c-0.2,0.7-0.3,1.4-0.4,2v0.1c-0.1,0.6-0.2,1.2-0.4,1.9c-0.1,0.7-0.3,1.5-0.4,2.2
			L4.7,245c0,0.3-0.1,0.6-0.1,0.9c-0.1,0.5-0.1,1-0.2,1.6c-0.1,0.7-0.1,1.4-0.2,2.1c0,0.6-0.1,1.3-0.1,1.9c0,0.2,0,0.4,0,0.6
			c0,0.6-0.1,1.2-0.1,1.8v0.1c0,0.7,0,1.4,0,2.1c0,0.7,0,1.4,0,2.2c0,0.7,0,1.4,0.1,2.2c0.1,2,0.3,3.9,0.5,5.9c0,0.3,0.1,0.7,0.1,1
			c0.1,0.5,0.1,1.1,0.2,1.6c0.1,0.7,0.2,1.4,0.3,2.1c0.1,0.6,0.2,1.2,0.4,1.8c0,0.1,0,0.3,0.1,0.4c0.1,0.6,0.3,1.3,0.4,1.9
			c0.2,0.7,0.3,1.4,0.5,2l0,0c0.2,0.7,0.3,1.3,0.5,2s0.4,1.3,0.6,2c0,0,0,0,0,0.1c0.2,0.6,0.4,1.3,0.6,1.9c0.4,1.3,0.9,2.6,1.4,3.9
			c0.2,0.6,0.5,1.3,0.8,1.9v0.1c0.3,0.6,0.5,1.2,0.8,1.8c0.6,1.2,1.1,2.5,1.8,3.7c0.3,0.6,0.6,1.2,0.9,1.8v0.1
			c0.6,1.1,1.2,2.2,1.9,3.2c0.1,0.1,0.2,0.3,0.3,0.4c0.3,0.5,0.6,1,0.9,1.5c0.7,1.1,1.5,2.3,2.3,3.4c0.3,0.4,0.6,0.9,1,1.3
			c0.9,1.3,1.9,2.5,2.9,3.7c0.4,0.5,0.9,1.1,1.4,1.6c0.2,0.2,0.4,0.5,0.6,0.7c0.4,0.4,0.8,0.9,1.2,1.3c1.2,1.3,2.4,2.6,3.7,3.8
			c0.3,0.3,0.5,0.5,0.8,0.7c0.4,0.3,0.7,0.7,1.1,1c0.8,0.7,1.7,1.5,2.5,2.1c0.7,0.6,1.4,1.1,2.1,1.6l0.1,0.1
			c0.6,0.5,1.2,0.9,1.9,1.4c0.1,0.1,0.2,0.2,0.3,0.2c0.7,0.5,1.4,1,2.1,1.5c0.7,0.5,1.4,0.9,2.1,1.4c0.1,0.1,0.2,0.1,0.3,0.2
			c0.7,0.4,1.4,0.9,2.1,1.3l0,0l0,0c0.7,0.4,1.4,0.8,2.1,1.2c0.1,0.1,0.2,0.1,0.3,0.2c0.4,0.2,0.8,0.4,1.2,0.6
			c0.3,0.1,0.6,0.3,0.8,0.4c0.1,0.1,0.3,0.1,0.4,0.2c0.6,0.3,1.3,0.6,1.9,0.9c0.1,0,0.1,0.1,0.2,0.1c0.8,0.4,1.6,0.7,2.4,1
			c0.8,0.3,1.6,0.7,2.4,1c0.5,0.2,1,0.4,1.5,0.6c1.3,0.5,2.6,0.9,3.9,1.3c0.7,0.2,1.3,0.4,2,0.6h0.1c0.6,0.2,1.3,0.4,1.9,0.5
			c0.7,0.2,1.3,0.3,2,0.5c0.6,0.1,1.3,0.3,1.9,0.4c0.2,0,0.4,0.1,0.6,0.1c0.5,0.1,1.1,0.2,1.6,0.3c0.7,0.1,1.4,0.2,2.1,0.3
			c0.1,0,0.2,0,0.2,0c0.2,0,0.5,0.1,0.7,0.1c0.4,0.1,0.9,0.1,1.3,0.2c0.7,0.1,1.3,0.2,2,0.2c2.8,0.3,5.7,0.4,8.6,0.4
			s5.8-0.1,8.6-0.4c1.3-0.1,2.6-0.3,4-0.5c0.8-0.1,1.6-0.2,2.3-0.4c0.4-0.1,0.7-0.1,1.1-0.2c0.5-0.1,1-0.2,1.4-0.3
			c0.3,0,0.5-0.1,0.8-0.2c0.5-0.1,1-0.2,1.4-0.3c0.4-0.1,0.8-0.2,1.1-0.3c0.3-0.1,0.6-0.1,0.9-0.2c0.4-0.1,0.9-0.2,1.3-0.3
			c0.2-0.1,0.5-0.1,0.7-0.2c0.5-0.1,1-0.3,1.5-0.5c0.7-0.2,1.3-0.4,1.9-0.6c0.5-0.1,0.9-0.3,1.4-0.5c0.4-0.1,0.8-0.3,1.2-0.4
			c1-0.4,2-0.8,3-1.2c0,0,0,0,0.1,0c0.8-0.3,1.6-0.7,2.4-1c0.1,0,0.1-0.1,0.2-0.1s0.1,0,0.2-0.1c0.5-0.2,1-0.5,1.5-0.7
			c0.1,0,0.2-0.1,0.3-0.1c0.1-0.1,0.3-0.1,0.4-0.2c0,0,0.1,0,0.1-0.1c0.6-0.3,1.3-0.6,1.9-1c0.1,0,0.2-0.1,0.3-0.2
			c0.7-0.4,1.4-0.8,2.1-1.2l0,0c12.8-5.6,26.9-8.7,41.8-8.7c0.9,0,1.9,0,2.8,0c0.9,0,1.8,0.1,2.8,0.1c0.8,0,1.6,0.1,2.3,0.1
			c0.5,0,1,0.1,1.5,0.1c0.4,0,0.7,0.1,1.1,0.1c0.4,0,0.8,0.1,1.3,0.1c0.6,0.1,1.3,0.1,1.9,0.2c0.1,0,0.1,0,0.2,0
			c0.8,0.1,1.5,0.2,2.2,0.3c0.2,0,0.5,0.1,0.7,0.1c0.5,0.1,1,0.2,1.6,0.3c0.4,0.1,0.9,0.1,1.3,0.2c0.1,0,0.2,0,0.3,0
			C174.8,305.1,164.1,281.8,164.1,256z M88,284.7c-3.6,0-7.1-0.7-10.4-1.9l0,0l-0.5-0.2c-0.1,0-0.2-0.1-0.2-0.1l-0.7-0.3
			c-0.9-0.4-1.7-0.8-2.5-1.3c-8.8-5.1-14.2-14.6-14.2-24.8c0-10,5.4-19.5,14-24.6c1.2-0.7,2.5-1.3,3.8-1.9c3.4-1.4,7.1-2.2,10.9-2.2
			c15.8,0,28.7,12.9,28.7,28.7S103.8,284.7,88,284.7z"/>
		<path class="st0" d="M424,235.2c-2.7,0-5.4,0.5-7.9,1.6c-0.9,0.4-1.8,0.8-2.7,1.4c-6.4,3.8-10.1,10.5-10.1,17.8
			c0,7.4,4,14.2,10.3,17.9c0.5,0.3,1.1,0.6,1.6,0.9l0.6,0.3l0.8,0.3c2.4,0.9,4.8,1.4,7.4,1.4c11.4,0,20.8-9.3,20.8-20.8
			S435.4,235.2,424,235.2z"/>
		<path class="st0" d="M256,235.2c-2.7,0-5.4,0.5-7.9,1.6c-0.9,0.4-1.8,0.8-2.7,1.4c-6.4,3.8-10.1,10.5-10.1,17.8
			c0,7.4,4,14.2,10.3,17.9c0.5,0.3,1.1,0.6,1.6,0.9l0.6,0.3l0.8,0.3c2.4,0.9,4.8,1.4,7.4,1.4c11.4,0,20.8-9.3,20.8-20.8
			S267.4,235.2,256,235.2z"/>
	</g>
</g>
<g id="сетки" class="st1">
	<g class="st2">
		<path class="st0" d="M1139.2,250.2l54.2-52.5c1.6-1.6,3.7-2.3,5.7-2.3c2.1,0,4.1,0.8,5.7,2.3l54.2,52.5l12.1-11.7l-66.3-64.2
			c-1.6-1.6-3.7-2.3-5.7-2.3c-2.1,0-4.1,0.8-5.7,2.3l-66.3,64.2l-5.5,5.3l-21.5,21.8l5.8,5.6c1.6,1.6,3.7,2.3,5.7,2.3
			c2.1,0,4.1-0.8,5.7-2.3l9.7-9.4L1139.2,250.2z"/>
		<path class="st0" d="M1296,244.3l-3-2.9l-0.7-0.7c-0.8-0.8-1.8-1.4-2.8-1.8c-0.9-0.4-1.9-0.6-2.9-0.6c-2.1,0-4.1,0.8-5.7,2.3
			l-9.7,9.4l-12.1,11.7l-54.2,52.5c-1.6,1.6-3.7,2.3-5.7,2.3c-2.1,0-4.1-0.8-5.7-2.3l-54.2-52.5l-12.1,11.7l66.3,64.2
			c1.6,1.6,3.7,2.3,5.7,2.3c2.1,0,4.1-0.8,5.7-2.3l66.2-64.1l0,0l3-2.9l3-2.9l3.7-3.6l17.4-17.7L1296,244.3z"/>
		<path class="st0" d="M1332.8,250.2l54.2-52.5c1.6-1.6,3.7-2.3,5.7-2.3c2.1,0,4.1,0.8,5.7,2.3l54.2,52.5l12.1-11.7l-66.3-64.2
			c-1.6-1.6-3.7-2.3-5.7-2.3c-2.1,0-4.1,0.8-5.7,2.3l-66.3,64.2l-5.5,5.3l-21.5,21.8l5.8,5.6c1.6,1.6,3.7,2.3,5.7,2.3
			c2.1,0,4.1-0.8,5.7-2.3l9.7-9.4L1332.8,250.2z"/>
		<path class="st0" d="M1489.6,244.3l-3-2.9l-0.7-0.7c-0.8-0.8-1.8-1.4-2.8-1.8c-0.9-0.4-1.9-0.6-2.9-0.6c-2.1,0-4.1,0.8-5.7,2.3
			l-9.7,9.4l-12.1,11.7l-54.2,52.5c-1.6,1.6-3.7,2.3-5.7,2.3c-2.1,0-4.1-0.8-5.7-2.3l-54.2-52.5l-12.1,11.7l66.3,64.2
			c1.6,1.6,3.7,2.3,5.7,2.3c2.1,0,4.1-0.8,5.7-2.3l66.2-64.1l0,0l3-2.9l3-2.9l3.7-3.6l17.4-17.7L1489.6,244.3z"/>
		<polygon class="st0" points="1077.5,238.5 1056.1,217.7 1044,229.4 1065.4,250.2 		"/>
		<path class="st0" d="M1102.4,244.3l-3-2.9l-0.7-0.7c-0.8-0.8-1.8-1.4-2.8-1.8c-0.9-0.4-1.9-0.6-2.9-0.6c-2.1,0-4.1,0.8-5.7,2.3
			l-9.7,9.4l-12.1,11.7l-21.4,20.7l12.1,11.7l21.4-20.7l0,0l3-2.9l3-2.9l3.7-3.6l17.4-17.7L1102.4,244.3z"/>
		<polygon class="st0" points="1514.5,273.5 1535.9,294.3 1548,282.6 1526.6,261.8 		"/>
		<path class="st0" d="M1526.6,250.2l21.4-20.7l-12.1-11.7l-21.4,20.7l0,0l-3,2.9l-3,2.9l-3.7,3.6l-17.4,17.7l2.2,2.1l3,2.9l0.7,0.7
			c0.8,0.8,1.8,1.4,2.8,1.8c0.9,0.4,1.9,0.6,2.9,0.6c2.1,0,4.1-0.8,5.7-2.3l9.7-9.4L1526.6,250.2z"/>
	</g>
</g>
<g id="сетки2" class="st1">
	<g class="st2">
		<polygon class="st0" points="1358.9,250.3 1370.6,238.7 1330.6,198.8 1319,210.4 		"/>
		<polygon class="st0" points="1163.9,250.3 1175.5,238.7 1135.6,198.8 1123.9,210.4 		"/>
		<path class="st0" d="M1482.6,213.6c4.7,4.7,12.3,4.7,17,0l46.8-46.9l-11.6-11.7l-55.3,55.3L1482.6,213.6z"/>
		
			<rect x="1521.9" y="200.3" transform="matrix(0.7071 -0.7071 0.7071 0.7071 296.1712 1144.9524)" class="st0" width="16.5" height="29.3"/>
		
			<rect x="1521.9" y="326.1" transform="matrix(0.7071 -0.7071 0.7071 0.7071 207.2177 1181.7976)" class="st0" width="16.5" height="29.3"/>
		
			<rect x="1053.6" y="156.6" transform="matrix(0.7071 -0.7071 0.7071 0.7071 189.9106 800.9734)" class="st0" width="16.5" height="29.3"/>
		
			<rect x="1239" y="259.2" transform="matrix(0.7071 -0.7071 0.7071 0.7071 162.0601 966.1154)" class="st0" width="16.5" height="56.5"/>
		<path class="st0" d="M1304.5,298.4c-4.7-4.7-12.3-4.7-17,0l-86.2,86.2c-1.6,1.6-4.1,1.6-5.7,0l-60.1-60.1l-11.6,11.6l66,66.1
			c4.7,4.7,12.3,4.7,17,0l100.7-100.7L1304.5,298.4z"/>
		<path class="st0" d="M1092.5,213.6c4.7,4.7,12.3,4.7,17,0l86.2-86.2c1.6-1.6,4.1-1.6,5.7,0l60.1,60.1l11.6-11.6l-66.1-66.1
			c-4.7-4.7-12.3-4.7-17,0l-100.7,100.7L1092.5,213.6z"/>
		
			<rect x="1053.6" y="282.4" transform="matrix(0.7071 -0.7071 0.7071 0.7071 100.9571 837.8186)" class="st0" width="16.5" height="29.3"/>
		<path class="st0" d="M1109.5,298.4c-4.7-4.7-12.3-4.7-17,0l-46.8,46.8l11.6,11.6l55.3-55.3L1109.5,298.4z"/>
		<polygon class="st0" points="1456.4,313.2 1468.1,301.6 1428.1,261.7 1416.5,273.3 		"/>
		<path class="st0" d="M1499.6,298.4c-4.7-4.7-12.3-4.7-17,0l-86.2,86.2c-1.6,1.6-4.1,1.6-5.7,0l-60.1-60.1l-11.6,11.6l66.1,66.1
			c4.7,4.7,12.3,4.7,17,0l100.7-100.7L1499.6,298.4z"/>
		<path class="st0" d="M1190,276.5c4.7,4.7,12.3,4.7,17,0l100.7-100.7l-3.2-3.2c-4.7-4.7-12.3-4.7-17,0l-100.7,100.7L1190,276.5z"/>
		<path class="st0" d="M1112.6,175.8l-3.2-3.2c-4.7-4.7-12.3-4.7-17,0l-46.8,46.9l11.6,11.6L1112.6,175.8z"/>
		<path class="st0" d="M1402,235.6c-4.7-4.7-12.3-4.7-17,0l-100.7,100.7l3.2,3.2c4.7,4.7,12.3,4.7,17,0l100.7-100.7L1402,235.6z"/>
		<path class="st0" d="M1206.9,235.5c-4.7-4.7-12.3-4.7-17,0l-100.7,100.7l3.2,3.2c4.7,4.7,12.3,4.7,17,0l100.7-100.7L1206.9,235.5z
			"/>
		<path class="st0" d="M1479.4,336.2l3.2,3.2c4.7,4.7,12.3,4.7,17,0l46.8-46.8l-11.6-11.7L1479.4,336.2z"/>
		<path class="st0" d="M1287.5,213.6c4.7,4.7,12.3,4.7,17,0l86.2-86.2c1.6-1.6,4.1-1.6,5.7,0l60.1,60.1l11.6-11.6l-66.1-66.1
			c-4.7-4.7-12.3-4.7-17,0l-100.7,100.7L1287.5,213.6z"/>
		<path class="st0" d="M1385,276.5c4.7,4.7,12.3,4.7,17,0l100.7-100.7l-3.2-3.2c-4.7-4.7-12.3-4.7-17,0l-100.7,100.7L1385,276.5z"/>
	</g>
</g>
</svg>
